<?xml version="1.0" encoding="UTF-8"?>
<svg xmlns="http://www.w3.org/2000/svg" xmlns:xlink="http://www.w3.org/1999/xlink" width="130px" height="56px" viewBox="0 0 130 69" version="1.1">
<g id="surface1">
<path style=" stroke:none;fill-rule:nonzero;fill:rgb(100%,100%,100%);fill-opacity:1;" d="M 19.78125 25.863281 C 20.800781 22.675781 22.027344 19.285156 23.460938 15.683594 C 23.597656 15.34375 24.082031 14.339844 24.917969 12.675781 C 25.75 11.015625 26.363281 9.550781 26.757812 8.28125 C 27.148438 7.015625 27.257812 5.917969 27.089844 4.992188 C 27.054688 4.785156 26.96875 4.640625 26.832031 4.554688 C 26.695312 4.46875 26.5 4.46875 26.246094 4.554688 C 25.988281 4.640625 25.769531 4.726562 25.582031 4.8125 C 25.394531 4.898438 25.09375 5.058594 24.6875 5.300781 L 23.972656 5.660156 C 21.039062 8.949219 18.5625 12.589844 16.535156 16.585938 C 14.507812 20.578125 12.589844 25.179688 10.785156 30.386719 L 10.578125 31.003906 C 14.15625 28.84375 17.222656 27.132812 19.78125 25.863281 Z M 19.523438 26.738281 C 16.867188 27.972656 13.800781 29.632812 10.324219 31.722656 L 9.964844 32.90625 C 13 31.707031 15.863281 30.765625 18.554688 30.078125 C 18.824219 29.015625 19.148438 27.902344 19.523438 26.738281 Z M 9.148438 32.445312 L 5.109375 34.910156 L 8.84375 33.316406 Z M 11.191406 42.058594 L 10.476562 42.828125 L 9.761719 43.496094 L 8.585938 44.628906 C 8.210938 45.003906 7.8125 45.339844 7.386719 45.628906 C 6.960938 45.921875 6.660156 46.03125 6.492188 45.964844 C 6.285156 45.859375 6.183594 45.371094 6.183594 44.5 C 6.183594 43.625 6.285156 42.691406 6.492188 41.695312 C 6.796875 40.085938 7.480469 37.636719 8.535156 34.347656 C 6.046875 35.304688 3.203125 36.523438 0 37.996094 L 1.429688 36.554688 L 9.40625 31.722656 C 11.3125 26.207031 13.367188 21.347656 15.5625 17.148438 C 17.761719 12.953125 20.496094 9.15625 23.765625 5.761719 L 25.199219 4.324219 L 25.914062 3.964844 L 26.527344 3.605469 L 27.140625 3.296875 C 27.34375 3.191406 27.515625 3.125 27.652344 3.089844 C 27.789062 3.054688 27.921875 3.039062 28.058594 3.039062 C 28.195312 3.039062 28.296875 3.082031 28.367188 3.167969 C 28.433594 3.253906 28.484375 3.382812 28.519531 3.550781 C 28.691406 4.476562 28.578125 5.574219 28.1875 6.84375 C 27.796875 8.109375 27.183594 9.574219 26.347656 11.238281 C 25.511719 12.898438 25.027344 13.902344 24.890625 14.246094 C 23.289062 18.222656 21.976562 21.90625 20.957031 25.296875 C 22.589844 24.542969 24.191406 23.875 25.761719 23.292969 C 26.679688 22.949219 27.675781 22.632812 28.75 22.34375 C 29.824219 22.050781 31.023438 21.75 32.351562 21.441406 C 33.683594 21.132812 34.703125 20.875 35.421875 20.671875 L 33.988281 22.109375 C 33.273438 22.316406 32.25 22.574219 30.921875 22.882812 C 29.59375 23.191406 28.390625 23.488281 27.320312 23.78125 C 26.246094 24.074219 25.25 24.390625 24.328125 24.734375 C 23.136719 25.179688 21.910156 25.675781 20.648438 26.222656 L 19.679688 29.769531 C 23.1875 28.914062 26.628906 28.417969 30.003906 28.28125 C 37.394531 27.972656 41.519531 28.863281 42.371094 30.953125 C 43.222656 33.113281 41.128906 36.660156 36.085938 41.59375 L 35.929688 41.75 C 40.257812 37.257812 41.886719 34.054688 40.8125 32.136719 C 39.738281 30.214844 35.660156 29.410156 28.570312 29.71875 C 25.574219 29.855469 22.523438 30.265625 19.421875 30.953125 C 18.878906 33.285156 18.511719 35.390625 18.324219 37.277344 C 18.136719 39.160156 18.144531 40.941406 18.347656 42.621094 C 18.554688 44.300781 19.125 45.613281 20.0625 46.554688 C 21 47.496094 22.265625 47.96875 23.867188 47.96875 C 26.289062 47.96875 28.929688 47.007812 31.792969 45.089844 C 32.234375 44.78125 32.675781 44.457031 33.121094 44.113281 L 34.652344 42.777344 C 35.234375 42.296875 35.660156 41.953125 35.929688 41.75 L 34.652344 43.035156 L 33.324219 44.214844 L 31.738281 45.5 C 31.261719 45.878906 30.804688 46.222656 30.359375 46.53125 C 27.496094 48.449219 24.855469 49.410156 22.4375 49.410156 C 21.074219 49.410156 19.957031 49.058594 19.089844 48.355469 C 18.222656 47.652344 17.609375 46.734375 17.25 45.605469 C 16.890625 44.472656 16.722656 43.09375 16.738281 41.464844 C 16.757812 39.835938 16.890625 38.203125 17.148438 36.554688 C 17.402344 34.910156 17.769531 33.128906 18.246094 31.210938 C 15.519531 31.894531 12.660156 32.804688 9.660156 33.933594 C 8.773438 36.746094 8.195312 38.851562 7.921875 40.257812 C 7.71875 41.25 7.617188 42.183594 7.617188 43.058594 C 7.617188 43.933594 7.71875 44.421875 7.921875 44.523438 C 8.125 44.558594 8.433594 44.429688 8.84375 44.140625 C 9.25 43.847656 9.644531 43.53125 10.019531 43.1875 Z M 49.78125 11.261719 L 51.007812 5.609375 L 52.441406 4.167969 L 51.265625 9.671875 L 49.988281 15.53125 C 49.714844 16.765625 49.296875 18.554688 48.734375 20.902344 C 48.171875 23.25 47.667969 25.1875 47.226562 26.710938 C 46.785156 28.238281 46.246094 29.984375 45.617188 31.957031 C 44.984375 33.925781 44.332031 35.769531 43.648438 37.480469 L 47.328125 32.804688 L 48.761719 31.363281 C 48.488281 32.050781 48.265625 32.648438 48.09375 33.164062 C 47.925781 33.675781 47.847656 34.148438 47.867188 34.578125 C 47.882812 35.003906 47.90625 35.367188 47.941406 35.65625 C 47.976562 35.949219 48.136719 36.222656 48.429688 36.480469 C 48.71875 36.734375 48.964844 36.941406 49.167969 37.097656 C 49.375 37.25 49.75 37.414062 50.292969 37.585938 C 50.839844 37.753906 51.28125 37.882812 51.621094 37.96875 C 51.964844 38.054688 52.507812 38.183594 53.257812 38.355469 C 53.667969 38.457031 53.972656 38.542969 54.179688 38.613281 L 52.746094 40.050781 C 52.542969 40.019531 52.21875 39.949219 51.777344 39.847656 L 50.242188 39.488281 C 49.9375 39.382812 49.519531 39.246094 48.988281 39.074219 C 48.460938 38.902344 48.09375 38.75 47.890625 38.613281 L 47.125 38.046875 C 46.816406 37.839844 46.640625 37.609375 46.585938 37.351562 C 46.535156 37.097656 46.484375 36.777344 46.433594 36.402344 C 46.382812 36.023438 46.410156 35.613281 46.511719 35.167969 C 46.613281 34.722656 46.785156 34.207031 47.023438 33.625 L 43.34375 38.304688 L 41.910156 39.742188 C 42.625 37.996094 43.316406 36.109375 43.980469 34.089844 C 44.644531 32.066406 45.199219 30.277344 45.640625 28.714844 C 46.085938 27.15625 46.597656 25.160156 47.175781 22.726562 L 48.453125 17.277344 Z M 56.171875 30.851562 L 57.601562 29.410156 C 56.921875 30.78125 56.121094 32.640625 55.199219 34.988281 C 54.28125 37.335938 53.992188 38.75 54.332031 39.230469 C 54.398438 39.332031 54.484375 39.402344 54.585938 39.433594 C 54.6875 39.46875 54.832031 39.511719 55.019531 39.5625 C 55.207031 39.613281 55.335938 39.640625 55.40625 39.640625 C 56.835938 38.03125 58.265625 36.300781 59.699219 34.449219 L 59.75 34.398438 C 60.261719 33.609375 60.738281 32.90625 61.179688 32.289062 L 63.019531 29.976562 L 64.449219 28.535156 L 61.179688 33.007812 C 60.738281 33.695312 60.378906 34.292969 60.105469 34.808594 C 59.835938 35.324219 59.628906 35.75 59.492188 36.09375 C 59.355469 36.4375 59.304688 36.695312 59.339844 36.863281 C 59.375 37.035156 59.425781 37.164062 59.492188 37.25 C 59.5625 37.335938 59.730469 37.34375 60.003906 37.277344 C 60.277344 37.207031 60.507812 37.128906 60.695312 37.042969 C 60.882812 36.960938 61.179688 36.8125 61.589844 36.609375 L 62.558594 36.042969 L 63.582031 35.425781 L 64.347656 34.960938 C 64.554688 34.824219 64.792969 34.679688 65.066406 34.527344 C 65.335938 34.371094 65.574219 34.242188 65.78125 34.140625 C 65.984375 34.039062 66.15625 33.96875 66.292969 33.933594 C 66.324219 33.898438 66.402344 33.867188 66.519531 33.832031 C 66.640625 33.796875 66.742188 33.761719 66.828125 33.730469 C 66.914062 33.695312 67.007812 33.667969 67.109375 33.652344 C 67.210938 33.632812 67.289062 33.644531 67.339844 33.675781 C 67.390625 33.710938 67.433594 33.761719 67.464844 33.832031 C 67.570312 34.039062 67.507812 34.371094 67.289062 34.835938 C 67.066406 35.296875 67.007812 35.632812 67.109375 35.835938 C 67.449219 36.523438 67.976562 36.949219 68.691406 37.121094 C 69.410156 37.292969 70.074219 37.300781 70.6875 37.148438 C 71.300781 36.992188 72.03125 36.761719 72.882812 36.453125 C 73.734375 36.144531 74.230469 35.972656 74.367188 35.9375 L 72.9375 37.378906 C 72.800781 37.414062 72.304688 37.585938 71.453125 37.894531 C 70.601562 38.203125 69.867188 38.433594 69.253906 38.585938 C 68.640625 38.742188 67.96875 38.734375 67.238281 38.5625 C 66.503906 38.390625 65.984375 37.960938 65.679688 37.277344 C 65.574219 37.070312 65.625 36.734375 65.832031 36.273438 C 66.035156 35.8125 66.105469 35.476562 66.035156 35.269531 C 66 35.203125 65.949219 35.160156 65.882812 35.144531 C 65.8125 35.125 65.746094 35.132812 65.679688 35.167969 L 65.371094 35.167969 C 65.304688 35.203125 65.210938 35.246094 65.089844 35.296875 C 64.972656 35.347656 64.894531 35.375 64.859375 35.375 C 64.585938 35.476562 63.308594 36.195312 61.027344 37.53125 C 58.949219 38.765625 57.890625 39.023438 57.859375 38.304688 C 57.859375 37.824219 58.199219 37 58.878906 35.835938 C 57.753906 37.171875 56.613281 38.457031 55.457031 39.691406 L 54.023438 41.132812 C 53.921875 41.097656 53.785156 41.0625 53.617188 41.027344 C 53.445312 40.996094 53.300781 40.953125 53.179688 40.898438 C 53.0625 40.847656 52.96875 40.773438 52.898438 40.667969 C 52.558594 40.1875 52.839844 38.785156 53.742188 36.453125 C 54.644531 34.121094 55.457031 32.253906 56.171875 30.851562 Z M 74.980469 34.550781 L 73.753906 35.269531 L 75.183594 33.832031 C 76.855469 32.769531 78.378906 32.152344 79.757812 31.980469 C 81.140625 31.808594 81.871094 32.179688 81.957031 33.085938 C 82.042969 33.996094 81.164062 35.527344 79.324219 37.6875 L 77.894531 39.125 L 76.003906 40.875 C 76.617188 40.804688 77.382812 40.6875 78.300781 40.515625 L 80.5 40.101562 C 81.046875 40 81.777344 39.933594 82.699219 39.898438 C 83.617188 39.863281 84.382812 39.949219 84.996094 40.15625 L 83.566406 41.59375 C 82.917969 41.386719 82.128906 41.3125 81.191406 41.363281 C 80.253906 41.414062 79.503906 41.484375 78.941406 41.570312 C 78.378906 41.652344 77.636719 41.78125 76.71875 41.953125 C 75.796875 42.125 75.03125 42.246094 74.417969 42.3125 L 75.847656 40.875 L 78.457031 38.511719 C 80.601562 35.90625 81.113281 34.277344 79.988281 33.625 C 79 33.042969 77.332031 33.351562 74.980469 34.550781 Z M 85.101562 37.6875 C 87.179688 37.308594 90.09375 36.640625 93.839844 35.683594 C 93.90625 35.648438 93.984375 35.578125 94.070312 35.476562 C 94.15625 35.375 94.230469 35.289062 94.300781 35.21875 C 94.367188 35.152344 94.429688 35.082031 94.480469 35.015625 C 94.53125 34.945312 94.554688 34.894531 94.554688 34.859375 C 94.554688 34.824219 94.523438 34.792969 94.453125 34.757812 C 92 34.207031 88.882812 35.183594 85.101562 37.6875 Z M 96.34375 36.144531 L 93.636719 36.863281 C 93.226562 37.585938 92.886719 38.304688 92.613281 39.023438 L 91.183594 40.464844 C 91.558594 39.433594 92.152344 38.285156 92.972656 37.019531 C 88.542969 38.148438 85.183594 38.902344 82.902344 39.28125 L 84.332031 37.839844 C 89.136719 34.175781 92.988281 32.667969 95.882812 33.316406 C 95.988281 33.386719 96.011719 33.464844 95.960938 33.550781 C 95.910156 33.632812 95.78125 33.78125 95.578125 33.984375 L 95.167969 34.398438 L 94.402344 35.578125 L 97.777344 34.707031 Z M 98.335938 41.285156 C 99.019531 39.230469 99.683594 36.917969 100.332031 34.347656 C 99.105469 35.714844 98.152344 37.171875 97.46875 38.714844 C 96.855469 40.121094 96.445312 41.613281 96.242188 43.1875 C 96.140625 44.457031 96.394531 45.023438 97.007812 44.882812 C 97.382812 44.0625 97.757812 43.101562 98.132812 42.003906 C 98.066406 41.902344 98.132812 41.664062 98.335938 41.285156 Z M 104.214844 35.269531 L 103.140625 36.195312 C 102.597656 36.675781 102.152344 37.085938 101.8125 37.429688 C 101.472656 37.773438 101.148438 38.117188 100.84375 38.457031 C 101.046875 38.285156 101.40625 37.960938 101.914062 37.480469 L 103.246094 36.300781 C 103.585938 35.957031 103.910156 35.613281 104.214844 35.269531 Z M 104.214844 35.269531 C 104.828125 34.585938 105.289062 33.898438 105.59375 33.214844 C 105.765625 32.90625 105.835938 32.53125 105.800781 32.082031 C 105.765625 31.636719 105.613281 31.328125 105.339844 31.160156 C 104.898438 30.917969 103.6875 31.550781 101.710938 33.0625 C 101.164062 35.324219 100.585938 37.394531 99.972656 39.28125 C 100.246094 39.042969 100.535156 38.765625 100.84375 38.457031 C 100.5 38.835938 100.210938 39.210938 99.972656 39.589844 L 99.820312 39.847656 L 99.566406 40.566406 C 99.597656 40.601562 99.632812 40.617188 99.667969 40.617188 C 100.3125 40.753906 100.96875 40.832031 101.632812 40.847656 C 102.300781 40.867188 102.996094 40.804688 103.730469 40.667969 C 104.460938 40.53125 105.117188 40.402344 105.699219 40.285156 C 106.277344 40.164062 106.976562 39.964844 107.792969 39.691406 L 109.734375 38.972656 C 110.210938 38.800781 110.886719 38.542969 111.753906 38.203125 C 112.625 37.859375 113.210938 37.617188 113.519531 37.480469 L 112.085938 38.921875 L 110.605469 39.539062 C 109.921875 39.8125 109.386719 40.019531 108.996094 40.15625 C 108.601562 40.292969 108.058594 40.496094 107.359375 40.773438 C 106.660156 41.046875 106.105469 41.234375 105.699219 41.335938 C 105.289062 41.441406 104.726562 41.59375 104.011719 41.800781 C 103.296875 42.003906 102.734375 42.117188 102.324219 42.132812 C 101.914062 42.152344 101.351562 42.195312 100.636719 42.261719 C 99.921875 42.332031 99.359375 42.3125 98.949219 42.210938 C 98.679688 43 98.390625 43.683594 98.082031 44.265625 L 96.652344 45.707031 C 95.320312 46.804688 94.691406 46.597656 94.761719 45.089844 C 94.863281 43.652344 95.289062 42.003906 96.039062 40.15625 C 96.277344 39.605469 96.507812 39.125 96.726562 38.714844 C 96.949219 38.304688 97.230469 37.875 97.570312 37.429688 L 98.285156 36.503906 C 98.421875 36.300781 98.753906 35.90625 99.285156 35.324219 C 99.8125 34.738281 100.160156 34.363281 100.332031 34.191406 C 101.386719 29.875 102.164062 25.597656 102.65625 21.367188 C 103.152344 17.132812 103.226562 13.695312 102.886719 11.058594 C 100.636719 19.007812 99.511719 26 99.511719 32.03125 L 98.082031 33.472656 C 98.082031 26.753906 99.546875 18.597656 102.476562 9 L 103.910156 7.5625 C 104.421875 9.171875 104.625 11.410156 104.523438 14.269531 C 104.421875 17.132812 104.128906 20.132812 103.652344 23.265625 C 103.175781 26.402344 102.5625 29.546875 101.8125 32.699219 L 101.964844 32.546875 L 102.886719 31.878906 L 104.0625 30.953125 C 104.335938 30.746094 104.675781 30.507812 105.085938 30.234375 C 105.492188 29.957031 105.84375 29.777344 106.132812 29.691406 C 106.421875 29.609375 106.636719 29.617188 106.769531 29.71875 C 107.042969 29.890625 107.195312 30.199219 107.230469 30.644531 C 107.265625 31.089844 107.195312 31.46875 107.027344 31.773438 C 106.550781 32.804688 105.613281 33.96875 104.214844 35.269531 Z M 113.671875 39.898438 L 112.238281 41.335938 C 112.238281 40.6875 112.222656 40.164062 112.1875 39.769531 C 112.15625 39.375 112.1875 38.871094 112.292969 38.253906 C 112.394531 37.636719 112.46875 37.15625 112.519531 36.8125 C 112.570312 36.46875 112.683594 36.007812 112.851562 35.425781 L 113.261719 34.039062 C 113.363281 33.730469 113.535156 33.285156 113.773438 32.699219 L 114.285156 31.363281 L 114.847656 29.925781 C 115.085938 29.34375 115.289062 28.863281 115.460938 28.484375 L 116.890625 27.046875 C 116.890625 27.148438 116.78125 28.5625 116.558594 31.285156 C 116.335938 34.011719 116.3125 36.351562 116.480469 38.304688 C 116.652344 40.257812 117.128906 41.355469 117.914062 41.59375 C 118.1875 41.664062 118.449219 41.613281 118.707031 41.441406 C 118.960938 41.269531 119.242188 41.011719 119.550781 40.667969 C 119.855469 40.328125 120.09375 40.101562 120.265625 40 L 118.832031 41.441406 C 118.664062 41.578125 118.425781 41.808594 118.117188 42.132812 C 117.8125 42.460938 117.53125 42.707031 117.273438 42.878906 C 117.019531 43.050781 116.753906 43.101562 116.480469 43.035156 C 115.972656 42.898438 115.585938 42.425781 115.332031 41.621094 C 115.078125 40.816406 114.957031 39.683594 114.972656 38.226562 C 114.992188 36.769531 115.015625 35.597656 115.050781 34.707031 C 115.085938 33.816406 115.171875 32.582031 115.308594 31.003906 C 114.046875 34.292969 113.5 37.257812 113.671875 39.898438 Z M 115.359375 22.523438 C 115.5625 22.726562 115.664062 22.96875 115.664062 23.242188 C 115.664062 23.515625 115.5625 23.753906 115.359375 23.960938 C 115.152344 24.167969 114.914062 24.269531 114.640625 24.269531 C 114.371094 24.269531 114.132812 24.167969 113.925781 23.960938 C 113.722656 23.753906 113.621094 23.515625 113.621094 23.242188 C 113.621094 22.96875 113.722656 22.726562 113.925781 22.523438 C 114.132812 22.316406 114.371094 22.214844 114.640625 22.214844 C 114.914062 22.214844 115.152344 22.316406 115.359375 22.523438 Z M 123.023438 37.277344 L 123.484375 37.121094 L 124.351562 32.957031 C 124.457031 32.410156 124.726562 31.089844 125.171875 29 L 126.140625 24.371094 C 126.347656 23.414062 126.566406 22.109375 126.808594 20.464844 C 127.046875 18.820312 127.214844 17.328125 127.316406 15.992188 C 126.089844 20.3125 125.113281 24.132812 124.378906 27.457031 C 123.644531 30.78125 123.195312 34.054688 123.023438 37.277344 Z M 122.71875 40.515625 L 123.230469 38.253906 L 122.617188 38.40625 L 121.695312 39.332031 C 121.933594 39.503906 122.136719 39.691406 122.308594 39.898438 C 122.480469 40.070312 122.617188 40.273438 122.71875 40.515625 Z M 114.335938 40.824219 L 115.765625 39.382812 C 117.128906 39.074219 119.089844 38.511719 121.644531 37.6875 C 121.746094 36.316406 121.925781 34.84375 122.179688 33.265625 C 122.4375 31.691406 122.675781 30.320312 122.898438 29.152344 C 123.117188 27.988281 123.46875 26.472656 123.945312 24.605469 C 124.421875 22.734375 124.777344 21.390625 125.019531 20.570312 L 126.296875 16.042969 L 127.472656 11.984375 L 128.902344 10.542969 C 128.9375 11.878906 128.902344 13.226562 128.800781 14.578125 C 128.699219 15.933594 128.511719 17.449219 128.238281 19.128906 C 127.964844 20.808594 127.742188 22.121094 127.574219 23.0625 C 127.402344 24.003906 127.097656 25.503906 126.652344 27.558594 C 126.210938 29.617188 125.921875 30.9375 125.785156 31.519531 L 124.660156 36.761719 C 126.703125 36.179688 128.527344 35.769531 130.128906 35.527344 L 128.699219 36.96875 C 127.367188 37.171875 125.953125 37.480469 124.457031 37.894531 L 123.28125 42.980469 C 123.417969 44.832031 123.167969 47.367188 122.539062 50.589844 C 121.910156 53.8125 121.277344 56.46875 120.648438 58.558594 C 120.015625 60.648438 119.378906 62.636719 118.730469 64.523438 L 117.300781 65.960938 C 118.082031 61.675781 119.601562 54.515625 121.847656 44.472656 C 121.746094 43 121.421875 41.953125 120.878906 41.335938 C 120.640625 41.0625 120.332031 40.847656 119.957031 40.695312 C 119.582031 40.539062 119.242188 40.429688 118.9375 40.359375 C 118.628906 40.292969 118.21875 40.273438 117.707031 40.308594 C 117.199219 40.34375 116.816406 40.378906 116.558594 40.410156 C 116.304688 40.445312 115.894531 40.523438 115.332031 40.644531 C 114.769531 40.761719 114.4375 40.824219 114.335938 40.824219 Z M 121.59375 38.714844 L 120.722656 38.972656 C 121.03125 39.042969 121.304688 39.144531 121.542969 39.28125 C 121.542969 39.109375 121.558594 38.921875 121.59375 38.714844 Z M 121.59375 38.714844 "/>
</g>
</svg>
