<?xml version="1.0" encoding="UTF-8"?>
<svg version="1.1" xmlns="http://www.w3.org/2000/svg" width="900" height="900">
<path d="M0 0 C297 0 594 0 900 0 C900 297 900 594 900 900 C603 900 306 900 0 900 C0 603 0 306 0 0 Z " fill="#FEFEFE" transform="translate(0,0)"/>
<path d="M0 0 C25 0 25 0 35 2 C37.87715396 2.4067181 40.74048635 2.79111891 43.625 3.125 C44.70201172 3.25455078 44.70201172 3.25455078 45.80078125 3.38671875 C47.53343872 3.59463765 49.26666015 3.7978487 51 4 C51 4.66 51 5.32 51 6 C54.3 6.33 57.6 6.66 61 7 C61 7.66 61 8.32 61 9 C61.60328125 9.06058594 62.2065625 9.12117188 62.828125 9.18359375 C63.62734375 9.26738281 64.4265625 9.35117187 65.25 9.4375 C66.43335938 9.55931641 66.43335938 9.55931641 67.640625 9.68359375 C69.82364639 9.97634993 71.8773182 10.42064419 74 11 C74 11.66 74 12.32 74 13 C76.64 13.33 79.28 13.66 82 14 C82 14.66 82 15.32 82 16 C84.31 16.33 86.62 16.66 89 17 C89 17.66 89 18.32 89 19 C90.65 19.33 92.3 19.66 94 20 C94 20.66 94 21.32 94 22 C98.455 22.99 98.455 22.99 103 24 C103 24.66 103 25.32 103 26 C104.98 26.33 106.96 26.66 109 27 C109 27.66 109 28.32 109 29 C110.98 29.495 110.98 29.495 113 30 C113 30.66 113 31.32 113 32 C113.804375 32.12375 114.60875 32.2475 115.4375 32.375 C116.283125 32.58125 117.12875 32.7875 118 33 C118.33 33.66 118.66 34.32 119 35 C120.97888961 35.72693904 122.97954558 36.39816251 125 37 C125 37.66 125 38.32 125 39 C126.485 39.495 126.485 39.495 128 40 C128 40.66 128 41.32 128 42 C129.32 42.33 130.64 42.66 132 43 C132 43.66 132 44.32 132 45 C133.65 45.33 135.3 45.66 137 46 C137.33 46.99 137.66 47.98 138 49 C139.32 49 140.64 49 142 49 C142 49.99 142 50.98 142 52 C142.99 52.33 143.98 52.66 145 53 C145 53.66 145 54.32 145 55 C145.99 55 146.98 55 148 55 C148 55.66 148 56.32 148 57 C149.175625 57.3403125 149.175625 57.3403125 150.375 57.6875 C153.66874075 59.33437038 153.79513255 60.64358353 155 64 C155.99 64.33 156.98 64.66 158 65 C158 65.66 158 66.32 158 67 C158.99 67.33 159.98 67.66 161 68 C161 68.66 161 69.32 161 70 C161.99 70.33 162.98 70.66 164 71 C164 71.99 164 72.98 164 74 C164.99 74.33 165.98 74.66 167 75 C167 75.66 167 76.32 167 77 C167.99 77.33 168.98 77.66 170 78 C170 78.66 170 79.32 170 80 C170.99 80.33 171.98 80.66 173 81 C173 81.99 173 82.98 173 84 C173.99 84.33 174.98 84.66 176 85 C176.33 86.65 176.66 88.3 177 90 C177.99 90.33 178.98 90.66 180 91 C180 91.66 180 92.32 180 93 C180.66 93 181.32 93 182 93 C182.33 94.32 182.66 95.64 183 97 C183.66 97 184.32 97 185 97 C185.33 98.65 185.66 100.3 186 102 C186.99 102.33 187.98 102.66 189 103 C189.33 103.99 189.66 104.98 190 106 C190.66 106.33 191.32 106.66 192 107 C192.625 110.0625 192.625 110.0625 193 113 C193.66 113 194.32 113 195 113 C195.33 114.65 195.66 116.3 196 118 C196.66 118 197.32 118 198 118 C199.25664978 120.90600261 200 122.79604584 200 126 C200.66 126 201.32 126 202 126 C202.33 127.98 202.66 129.96 203 132 C203.66 132 204.32 132 205 132 C205.33 133.98 205.66 135.96 206 138 C206.66 138 207.32 138 208 138 C211.44419134 148.37357631 211.44419134 148.37357631 211 154 C211.66 154 212.32 154 213 154 C213 155.32 213 156.64 213 158 C213.66 158 214.32 158 215 158 C215 162.29 215 166.58 215 171 C215.66 171 216.32 171 217 171 C217.98248524 175.0527516 218.08159574 178.83861737 218 183 C218.66 183 219.32 183 220 183 C220.91657981 188.38490641 221.11138159 193.54230189 221 199 C221.99 199 222.98 199 224 199 C224 207.25 224 215.5 224 224 C192.32 224 160.64 224 128 224 C126.40587716 220.81175432 126.89825265 217.37103338 126.9375 213.875 C126.94201172 213.12089844 126.94652344 212.36679687 126.95117188 211.58984375 C126.96296501 209.72652873 126.98090058 207.86325445 127 206 C126.34 206 125.68 206 125 206 C125 200.39 125 194.78 125 189 C124.34 189 123.68 189 123 189 C122.505 184.545 122.505 184.545 122 180 C121.34 180 120.68 180 120 180 C119.34 176.7 118.68 173.4 118 170 C117.34 170 116.68 170 116 170 C115.67 168.02 115.34 166.04 115 164 C114.34 164 113.68 164 113 164 C112.67 162.02 112.34 160.04 112 158 C111.01 157.67 110.02 157.34 109 157 C109 156.01 109 155.02 109 154 C108.01 153.67 107.02 153.34 106 153 C105.505 150.525 105.505 150.525 105 148 C104.34 148 103.68 148 103 148 C102.67 147.01 102.34 146.02 102 145 C101.175 144.34 100.35 143.68 99.5 143 C97 141 97 141 96 138 C94.36497064 136.41441619 94.36497064 136.41441619 92.4375 134.9375 C90.49609375 133.40234375 90.49609375 133.40234375 89 132 C89 131.34 89 130.68 89 130 C87.824375 129.6596875 87.824375 129.6596875 86.625 129.3125 C84 128 84 128 83 125.4375 C82.67 124.633125 82.34 123.82875 82 123 C79.55936559 122.32852082 79.55936559 122.32852082 77 122 C75.375 120.5 75.375 120.5 74 119 C72.515 118.505 72.515 118.505 71 118 C69.3125 116.5625 69.3125 116.5625 68 115 C68 114.34 68 113.68 68 113 C66.5459375 112.814375 66.5459375 112.814375 65.0625 112.625 C64.051875 112.41875 63.04125 112.2125 62 112 C61.67 111.34 61.34 110.68 61 110 C60.01 109.67 59.02 109.34 58 109 C58 108.34 58 107.68 58 107 C57.0925 106.855625 56.185 106.71125 55.25 106.5625 C52.78523044 106.13590527 50.41152893 105.64925779 48 105 C48 104.34 48 103.68 48 103 C45.69 102.67 43.38 102.34 41 102 C41 101.34 41 100.68 41 100 C38.03 99.67 35.06 99.34 32 99 C32 98.34 32 97.68 32 97 C31.39671875 97.01160156 30.7934375 97.02320313 30.171875 97.03515625 C29.37265625 97.04417969 28.5734375 97.05320312 27.75 97.0625 C26.56664062 97.07990234 26.56664062 97.07990234 25.359375 97.09765625 C23.09308998 97.00385306 21.1711105 96.63241063 19 96 C19 95.34 19 94.68 19 94 C12.73 94 6.46 94 0 94 C0 62.98 0 31.96 0 0 Z " fill="#EC1E24" transform="translate(227,356)"/>
<path d="M0 0 C18.50265957 0 18.50265957 0 26.375 0.9375 C27.19226563 1.02451172 28.00953125 1.11152344 28.8515625 1.20117188 C34.71227012 1.85613506 34.71227012 1.85613506 37 3 C39.0374763 3.22858114 41.08040303 3.41024278 43.125 3.5625 C44.76855469 3.68818359 44.76855469 3.68818359 46.4453125 3.81640625 C47.70988281 3.90728516 47.70988281 3.90728516 49 4 C49 4.66 49 5.32 49 6 C52.3 6.33 55.6 6.66 59 7 C59 7.66 59 8.32 59 9 C59.74765625 9.06058594 60.4953125 9.12117188 61.265625 9.18359375 C62.25046875 9.26738281 63.2353125 9.35117187 64.25 9.4375 C65.71179688 9.55931641 65.71179688 9.55931641 67.203125 9.68359375 C69.56461753 9.95074584 71.71901065 10.35371968 74 11 C74 11.66 74 12.32 74 13 C76.31 13.33 78.62 13.66 81 14 C81 14.66 81 15.32 81 16 C82.98 16.33 84.96 16.66 87 17 C87 17.66 87 18.32 87 19 C89.31 19.33 91.62 19.66 94 20 C94 20.66 94 21.32 94 22 C98.455 22.99 98.455 22.99 103 24 C103 24.66 103 25.32 103 26 C104.98 26.495 104.98 26.495 107 27 C107 27.66 107 28.32 107 29 C108.98 29.33 110.96 29.66 113 30 C113 30.66 113 31.32 113 32 C113.804375 32.12375 114.60875 32.2475 115.4375 32.375 C116.283125 32.58125 117.12875 32.7875 118 33 C118.33 33.66 118.66 34.32 119 35 C121.01669827 36.13350534 121.01669827 36.13350534 123 37 C123 37.66 123 38.32 123 39 C124.65 39.33 126.3 39.66 128 40 C128 40.66 128 41.32 128 42 C128.9590625 42.185625 128.9590625 42.185625 129.9375 42.375 C130.9584375 42.684375 130.9584375 42.684375 132 43 C132.33 43.66 132.66 44.32 133 45 C134.64363134 45.72159424 136.31050386 46.39351421 138 47 C138 47.66 138 48.32 138 49 C138.99 49 139.98 49 141 49 C142.35386936 50.65002828 143.68678142 52.3174387 145 54 C145.99 54.33 146.98 54.66 148 55 C148 55.99 148 56.98 148 58 C148.99 58.33 149.98 58.66 151 59 C151 59.66 151 60.32 151 61 C151.99 61 152.98 61 154 61 C154.33 61.99 154.66 62.98 155 64 C155.99 64.33 156.98 64.66 158 65 C158 65.99 158 66.98 158 68 C158.66 68 159.32 68 160 68 C161.22654922 69.45859908 162.44823802 70.92198853 163.62890625 72.41796875 C165.09608797 74.22359738 165.09608797 74.22359738 167.75 76.0625 C170 78 170 78 170.5 80.625 C170.665 81.40875 170.83 82.1925 171 83 C172.66072849 83.68132451 174.327767 84.34742127 176 85 C177.1875 87.5625 177.1875 87.5625 178 90 C178.66 90.33 179.32 90.66 180 91 C180.33 91.99 180.66 92.98 181 94 C181.515625 94.495 182.03125 94.99 182.5625 95.5 C184 97 184 97 184 100 C184.66 100 185.32 100 186 100 C186 100.99 186 101.98 186 103 C186.99 103 187.98 103 189 103 C189.433125 104.4540625 189.433125 104.4540625 189.875 105.9375 C190.64214682 109.10664203 190.64214682 109.10664203 193 110 C193.625 113.0625 193.625 113.0625 194 116 C194.66 116 195.32 116 196 116 C196.33 117.32 196.66 118.64 197 120 C197.66 120 198.32 120 199 120 C199.226875 121.27875 199.45375 122.5575 199.6875 123.875 C200.70662217 128.5192853 202.55082683 132.31846892 204.7578125 136.50390625 C207.04358909 141.09702336 209 145.83533413 209 151 C209.66 151 210.32 151 211 151 C212.5912689 155.873261 213.21192221 159.80790596 213 165 C213.66 165 214.32 165 215 165 C215.13277344 165.85464844 215.26554688 166.70929688 215.40234375 167.58984375 C215.66724609 169.24693359 215.66724609 169.24693359 215.9375 170.9375 C216.11152344 172.03964844 216.28554688 173.14179687 216.46484375 174.27734375 C216.71845136 176.90426929 216.71845136 176.90426929 218 178 C218.98678883 184.03037619 219.11252453 189.89867013 219 196 C219.66 196 220.32 196 221 196 C221.17172359 198.41639628 221.33740082 200.83298511 221.5 203.25 C221.54769531 203.91257812 221.59539062 204.57515625 221.64453125 205.2578125 C222.0598084 211.54629505 222 217.64910503 222 224 C190.98 224 159.96 224 128 224 C128 223.34 128 222.68 128 222 C127.34 222 126.68 222 126 222 C125.505 209.13 125.505 209.13 125 196 C124.34 196 123.68 196 123 196 C122.67 192.7 122.34 189.4 122 186 C121.34 186 120.68 186 120 186 C119.51849058 183.95888458 119.03989917 181.91708068 118.5625 179.875 C118.29566406 178.73804688 118.02882813 177.60109375 117.75390625 176.4296875 C117.0649313 173.29538696 116.49618806 170.16982274 116 167 C115.34 167 114.68 167 114 167 C113.67 165.02 113.34 163.04 113 161 C112.01 160.67 111.02 160.34 110 160 C110 159.01 110 158.02 110 157 C109.34 157 108.68 157 108 157 C106.5393715 154.35261084 106 153.10551666 106 150 C105.34 150 104.68 150 104 150 C103.505 147.525 103.505 147.525 103 145 C102.01 144.67 101.02 144.34 100 144 C100 143.34 100 142.68 100 142 C98.824375 141.62875 98.824375 141.62875 97.625 141.25 C94.52432668 139.7734889 94.40795828 138.99191134 93 136 C91.34211215 134.65576661 89.67423683 133.32381517 88 132 C87.10315544 130.95587305 86.22822489 129.89256414 85.375 128.8125 C83.24199897 125.79133392 83.24199897 125.79133392 80 125 C80 124.34 80 123.68 80 123 C78.515 122.505 78.515 122.505 77 122 C77 121.34 77 120.68 77 120 C75.02 119.34 73.04 118.68 71 118 C71 117.34 71 116.68 71 116 C69.02 115.505 69.02 115.505 67 115 C67 114.34 67 113.68 67 113 C65.35 112.67 63.7 112.34 62 112 C62 111.34 62 110.68 62 110 C59.03 109.505 59.03 109.505 56 109 C56 108.34 56 107.68 56 107 C53.03 106.34 50.06 105.68 47 105 C47 104.34 47 103.68 47 103 C44.69 102.67 42.38 102.34 40 102 C40 101.34 40 100.68 40 100 C36.7 99.67 33.4 99.34 30 99 C30 98.34 30 97.68 30 97 C23.07 96.505 23.07 96.505 16 96 C16 95.34 16 94.68 16 94 C10.72 94 5.44 94 0 94 C0 62.98 0 31.96 0 0 Z " fill="#EC1F25" transform="translate(451,356)"/>
<path d="M0 0 C7.26 0 14.52 0 22 0 C22 0.66 22 1.32 22 2 C22.7734375 1.98839844 23.546875 1.97679687 24.34375 1.96484375 C30.33936364 1.91290155 36.07302983 2.08815844 42 3 C42 3.66 42 4.32 42 5 C43.8253125 4.87625 43.8253125 4.87625 45.6875 4.75 C52.13941767 4.70877369 57.96505217 6.91062084 64 9 C64 9.66 64 10.32 64 11 C64.68707031 11.06058594 65.37414062 11.12117187 66.08203125 11.18359375 C67.43361328 11.30927734 67.43361328 11.30927734 68.8125 11.4375 C70.15248047 11.55931641 70.15248047 11.55931641 71.51953125 11.68359375 C74 12 74 12 77 13 C77 13.66 77 14.32 77 15 C79.97 15 82.94 15 86 15 C86 15.66 86 16.32 86 17 C86.969375 17.12375 87.93875 17.2475 88.9375 17.375 C89.948125 17.58125 90.95875 17.7875 92 18 C92.495 18.99 92.495 18.99 93 20 C95.3140622 20.73075648 97.64828869 21.40138258 100 22 C100 22.66 100 23.32 100 24 C101.98 24.33 103.96 24.66 106 25 C106 25.66 106 26.32 106 27 C107.98 27.495 107.98 27.495 110 28 C110 28.66 110 29.32 110 30 C111.65 30.33 113.3 30.66 115 31 C115 31.66 115 32.32 115 33 C115.598125 33.144375 116.19625 33.28875 116.8125 33.4375 C118.56150404 33.8872439 120.28677023 34.42892341 122 35 C122 35.66 122 36.32 122 37 C123.175625 37.0928125 123.175625 37.0928125 124.375 37.1875 C125.24125 37.455625 126.1075 37.72375 127 38 C127.66666667 39.66666667 128.33333333 41.33333333 129 43 C131.54775306 43.89386164 131.54775306 43.89386164 134 44 C134 44.66 134 45.32 134 46 C134.5775 46.0825 135.155 46.165 135.75 46.25 C138.6539336 47.21797787 140.03740604 48.68694284 142 51 C142 51.66 142 52.32 142 53 C142.7425 53.0825 143.485 53.165 144.25 53.25 C147.54302595 54.14809799 148.85976788 55.38416074 151 58 C151 58.66 151 59.32 151 60 C151.99 60 152.98 60 154 60 C154 60.99 154 61.98 154 63 C154.99 63 155.98 63 157 63 C157 63.99 157 64.98 157 66 C157.99 66 158.98 66 160 66 C160 66.99 160 67.98 160 69 C160.99 69.33 161.98 69.66 163 70 C164.37482707 71.63260714 165.70647667 73.30225062 167 75 C167.5775 75.53625 168.155 76.0725 168.75 76.625 C170 78 170 78 170 81 C170.78375 81.268125 171.5675 81.53625 172.375 81.8125 C175 83 175 83 177 86 C177 86.99 177 87.98 177 89 C177.66 89 178.32 89 179 89 C181.34869747 90.97290587 182.00102287 92.00306862 183 95 C183.66 95.33 184.32 95.66 185 96 C185.625 98.5625 185.625 98.5625 186 101 C186.66 101 187.32 101 188 101 C189.4606285 103.64738916 190 104.89448334 190 108 C190.66 108 191.32 108 192 108 C192.33 109.65 192.66 111.3 193 113 C193.66 113 194.32 113 195 113 C195.33 114.65 195.66 116.3 196 118 C196.66 118 197.32 118 198 118 C198.99 122.455 198.99 122.455 200 127 C200.66 127 201.32 127 202 127 C202.33 128.98 202.66 130.96 203 133 C203.66 133 204.32 133 205 133 C208.28571429 141.42857143 208.28571429 141.42857143 209 146 C209.66 146 210.32 146 211 146 C211.66 149.96 212.32 153.92 213 158 C213.66 158 214.32 158 215 158 C215 162.29 215 166.58 215 171 C215.66 171 216.32 171 217 171 C217.93619813 174.15506142 218.1057123 176.96586502 218.0625 180.25 C218.05347656 181.14203125 218.04445313 182.0340625 218.03515625 182.953125 C218.01775391 183.96632813 218.01775391 183.96632813 218 185 C218.66 185 219.32 185 220 185 C221.09321831 190.71206565 221.34539452 196.3682334 221.60546875 202.16210938 C221.45068922 205.88959826 221.45068922 205.88959826 223 209 C223 213.62 223 218.24 223 223 C191.65 223 160.3 223 128 223 C127.67 216.4 127.34 209.8 127 203 C125.81603797 198.14167307 124.61018866 193.6841852 123 189 C122.26268356 186.69008555 121.53334071 184.37760884 120.8125 182.0625 C120.48378906 181.00804687 120.15507812 179.95359375 119.81640625 178.8671875 C118.87397356 175.55739998 118.31819599 172.42060689 118 169 C117.34 169 116.68 169 116 169 C115.67 167.02 115.34 165.04 115 163 C114.34 163 113.68 163 113 163 C112.505 160.525 112.505 160.525 112 158 C111.34 158 110.68 158 110 158 C109.505 155.525 109.505 155.525 109 153 C108.01 152.67 107.02 152.34 106 152 C105.505 149.525 105.505 149.525 105 147 C104.01 146.67 103.02 146.34 102 146 C102 145.34 102 144.68 102 144 C101.34 144 100.68 144 100 144 C99.67 143.01 99.34 142.02 99 141 C97.515 140.01 97.515 140.01 96 139 C96 138.34 96 137.68 96 137 C95.01 136.67 94.02 136.34 93 136 C91.66104368 134.33784732 90.32869858 132.67036393 89 131 C87.93545062 130.08192425 86.8514876 129.18591487 85.75 128.3125 C84.38875 127.1678125 84.38875 127.1678125 83 126 C83 125.34 83 124.68 83 124 C81.02 123.505 81.02 123.505 79 123 C79 122.34 79 121.68 79 121 C77.515 120.505 77.515 120.505 76 120 C76 119.34 76 118.68 76 118 C74.02 117.34 72.04 116.68 70 116 C70 115.34 70 114.68 70 114 C68.35 113.67 66.7 113.34 65 113 C65 112.34 65 111.68 65 111 C62.03 110.505 62.03 110.505 59 110 C59 109.34 59 108.68 59 108 C57.35 107.67 55.7 107.34 54 107 C54 106.34 54 105.68 54 105 C51.03 104.34 48.06 103.68 45 103 C45 102.34 45 101.68 45 101 C41.7 100.67 38.4 100.34 35 100 C35 99.34 35 98.68 35 98 C34.14535156 97.93941406 33.29070312 97.87882812 32.41015625 97.81640625 C30.75306641 97.69072266 30.75306641 97.69072266 29.0625 97.5625 C27.40927734 97.44068359 27.40927734 97.44068359 25.72265625 97.31640625 C23 97 23 97 22 96 C14.74 95.34 7.48 94.68 0 94 C0 62.98 0 31.96 0 0 Z " fill="#EC1E24" transform="translate(227,133)"/>
<path d="M0 0 C7.26 0 14.52 0 22 0 C22 0.66 22 1.32 22 2 C23.08667969 1.98259766 23.08667969 1.98259766 24.1953125 1.96484375 C29.24783323 1.91768689 34.03378767 1.92622436 39 3 C39 3.66 39 4.32 39 5 C39.85658203 4.93039063 39.85658203 4.93039063 40.73046875 4.859375 C48.39466548 4.51820249 54.81295866 6.47665006 62 9 C62 9.66 62 10.32 62 11 C67.28 11.33 72.56 11.66 78 12 C78 12.66 78 13.32 78 14 C80.97 14.495 80.97 14.495 84 15 C84 15.66 84 16.32 84 17 C85.98 17.33 87.96 17.66 90 18 C90 18.66 90 19.32 90 20 C94.95 20.99 94.95 20.99 100 22 C100 22.66 100 23.32 100 24 C101.65 24.33 103.3 24.66 105 25 C105 25.66 105 26.32 105 27 C106.65 27.33 108.3 27.66 110 28 C110 28.66 110 29.32 110 30 C111.65 30.33 113.3 30.66 115 31 C115 31.66 115 32.32 115 33 C115.639375 33.103125 116.27875 33.20625 116.9375 33.3125 C117.618125 33.539375 118.29875 33.76625 119 34 C119.33 34.99 119.66 35.98 120 37 C121.65 37.33 123.3 37.66 125 38 C125 38.66 125 39.32 125 40 C126.98 40.495 126.98 40.495 129 41 C129 41.66 129 42.32 129 43 C130.32 43.33 131.64 43.66 133 44 C133 44.66 133 45.32 133 46 C135.97 46.99 135.97 46.99 139 48 C139 48.66 139 49.32 139 50 C139.99 50.33 140.98 50.66 142 51 C142 51.66 142 52.32 142 53 C142.99 53 143.98 53 145 53 C145 53.99 145 54.98 145 56 C145.61875 56.0825 146.2375 56.165 146.875 56.25 C149.67505419 57.23825442 149.74113932 58.40359985 151 61 C153.0335948 62.26804566 153.0335948 62.26804566 155 63 C155 63.66 155 64.32 155 65 C155.99 65.33 156.98 65.66 158 66 C158 66.66 158 67.32 158 68 C158.78375 68.226875 159.5675 68.45375 160.375 68.6875 C163.66874075 70.33437038 163.79513255 71.64358353 165 75 C165.99 75.33 166.98 75.66 168 76 C168 76.99 168 77.98 168 79 C168.66 79 169.32 79 170 79 C172.125 80.8125 172.125 80.8125 174 83 C174 83.99 174 84.98 174 86 C174.66 86 175.32 86 176 86 C176.66 87.65 177.32 89.3 178 91 C178.66 91 179.32 91 180 91 C180.33 92.32 180.66 93.64 181 95 C181.66 95 182.32 95 183 95 C183.33 95.99 183.66 96.98 184 98 C184.66 98.33 185.32 98.66 186 99 C186.625 101.5625 186.625 101.5625 187 104 C187.99 104.33 188.98 104.66 190 105 C190.33 106.98 190.66 108.96 191 111 C191.66 111 192.32 111 193 111 C193.33 112.65 193.66 114.3 194 116 C194.66 116 195.32 116 196 116 C196.33 117.65 196.66 119.3 197 121 C197.66 121 198.32 121 199 121 C199.33 123.97 199.66 126.94 200 130 C200.66 130 201.32 130 202 130 C202.33 132.31 202.66 134.62 203 137 C203.66 137 204.32 137 205 137 C205.33 138.98 205.66 140.96 206 143 C206.66 143 207.32 143 208 143 C211.52105913 150.52226268 213.35449298 157.66941506 213 166 C213.66 166 214.32 166 215 166 C215.96070434 168.88211302 216.10581883 170.69850044 216.0625 173.6875 C216.05347656 174.49574219 216.04445313 175.30398438 216.03515625 176.13671875 C216.01775391 177.05904297 216.01775391 177.05904297 216 178 C216.66 178 217.32 178 218 178 C218.13277344 179.14339844 218.26554688 180.28679687 218.40234375 181.46484375 C218.5805031 182.9557562 218.75890082 184.44664018 218.9375 185.9375 C219.02451172 186.69224609 219.11152344 187.44699219 219.20117188 188.22460938 C219.34324099 191.92187458 219.34324099 191.92187458 221 195 C222.35840409 204.27404273 222 213.65681865 222 223 C190.32 223 158.64 223 126 223 C125.505 210.13 125.505 210.13 125 197 C124.34 197 123.68 197 123 197 C122.67 193.7 122.34 190.4 122 187 C121.34 187 120.68 187 120 187 C119.67 182.71 119.34 178.42 119 174 C118.01 174 117.02 174 116 174 C115.7525 173.195625 115.505 172.39125 115.25 171.5625 C113.97659325 167.93329077 112.44816055 164.52366773 110.8046875 161.05078125 C110 159 110 159 110 156 C109.34 156 108.68 156 108 156 C107.67 155.01 107.34 154.02 107 153 C106.319375 152.34 105.63875 151.68 104.9375 151 C103 149 103 149 103 146 C102.34 146 101.68 146 101 146 C98.65130253 144.02709413 97.99897713 142.99693138 97 140 C96.319375 139.319375 95.63875 138.63875 94.9375 137.9375 C94.298125 137.298125 93.65875 136.65875 93 136 C93 135.34 93 134.68 93 134 C92.01 133.67 91.02 133.34 90 133 C90 132.34 90 131.68 90 131 C89.01 130.67 88.02 130.34 87 130 C87 129.34 87 128.68 87 128 C86.0925 127.773125 85.185 127.54625 84.25 127.3125 C80.51571127 125.80442186 79.36031867 124.17422166 77 121 C75.515 120.505 75.515 120.505 74 120 C74 119.34 74 118.68 74 118 C73.030625 117.71125 72.06125 117.4225 71.0625 117.125 C68 116 68 116 67 114 C65.515 113.505 65.515 113.505 64 113 C64 112.34 64 111.68 64 111 C62.35 110.67 60.7 110.34 59 110 C59 109.34 59 108.68 59 108 C58.154375 107.896875 57.30875 107.79375 56.4375 107.6875 C53.42161005 107.08432201 50.9571107 106.20916244 48.16796875 104.953125 C43.19111525 102.76510292 38.10699366 100.85984229 33 99 C32.17113281 98.69707031 31.34226562 98.39414063 30.48828125 98.08203125 C20.43965069 94.89430143 10.80070402 94.98188218 0 94 C0 62.98 0 31.96 0 0 Z " fill="#EC1E24" transform="translate(451,133)"/>
<path d="M0 0 C5.61 0 11.22 0 17 0 C17 0.66 17 1.32 17 2 C18.98 2.33 20.96 2.66 23 3 C23 3.66 23 4.32 23 5 C24.32 5.33 25.64 5.66 27 6 C27 6.66 27 7.32 27 8 C29.475 8.495 29.475 8.495 32 9 C32.495 10.98 32.495 10.98 33 13 C33.66 13 34.32 13 35 13 C35.28875 13.804375 35.5775 14.60875 35.875 15.4375 C36.73262568 18.1326468 36.73262568 18.1326468 39 19 C39.89144693 22.91215772 40.12605989 26.68086578 40.12939453 30.68237305 C40.13254669 31.77337814 40.13569885 32.86438324 40.13894653 33.9884491 C40.13591019 35.73246758 40.13591019 35.73246758 40.1328125 37.51171875 C40.13376923 38.71689651 40.13472595 39.92207428 40.13571167 41.16377258 C40.1363908 43.70464124 40.13455518 46.24551165 40.13037109 48.78637695 C40.1250051 52.68379585 40.13033236 56.58110024 40.13671875 60.47851562 C40.1360582 62.94791692 40.1347775 65.41731815 40.1328125 67.88671875 C40.13483673 69.05547043 40.13686096 70.22422211 40.13894653 71.4283905 C40.13421829 73.05071342 40.13421829 73.05071342 40.12939453 74.70581055 C40.12859894 75.65812057 40.12780334 76.6104306 40.12698364 77.59159851 C40 80 40 80 39 83 C38.34 83 37.68 83 37 83 C36.91363281 83.60328125 36.82726562 84.2065625 36.73828125 84.828125 C35.57329113 91.45467429 35.57329113 91.45467429 32.4375 94.4375 C31.2309375 95.2109375 31.2309375 95.2109375 30 96 C29.67 96.66 29.34 97.32 29 98 C26.4375 98.625 26.4375 98.625 24 99 C24 99.66 24 100.32 24 101 C21.21056915 102.39471542 18.90239581 102.12973765 15.78515625 102.1328125 C14.54185547 102.13410156 13.29855469 102.13539063 12.01757812 102.13671875 C10.05981445 102.13091797 10.05981445 102.13091797 8.0625 102.125 C6.76119141 102.12886719 5.45988281 102.13273438 4.11914062 102.13671875 C2.25225586 102.13478516 2.25225586 102.13478516 0.34765625 102.1328125 C-1.36925415 102.13112061 -1.36925415 102.13112061 -3.12084961 102.12939453 C-6 102 -6 102 -9 101 C-9 100.34 -9 99.68 -9 99 C-9.99 98.67 -10.98 98.34 -12 98 C-13.34423339 96.34211215 -14.67618483 94.67423683 -16 93 C-17.3303125 92.0409375 -17.3303125 92.0409375 -18.6875 91.0625 C-21.57677307 88.48558078 -21.74209687 86.78257924 -22 83 C-22.66 83 -23.32 83 -24 83 C-24 79.04 -24 75.08 -24 71 C-19.71 71 -15.42 71 -11 71 C-11 72.65 -11 74.3 -11 76 C-10.34 76 -9.68 76 -9 76 C-8.67 78.31 -8.34 80.62 -8 83 C-7.01 83 -6.02 83 -5 83 C-5 83.99 -5 84.98 -5 86 C-4.01 86 -3.02 86 -2 86 C-2 86.66 -2 87.32 -2 88 C4.27 88 10.54 88 17 88 C17 87.34 17 86.68 17 86 C21.38461538 83 21.38461538 83 24 83 C24.144375 82.360625 24.28875 81.72125 24.4375 81.0625 C25 79 25 79 26 78 C26.08631874 76.65732587 26.10706473 75.31025678 26.09765625 73.96484375 C26.09443359 73.15595703 26.09121094 72.34707031 26.08789062 71.51367188 C26.07951172 70.66353516 26.07113281 69.81339844 26.0625 68.9375 C26.05798828 68.08349609 26.05347656 67.22949219 26.04882812 66.34960938 C26.03700373 64.23304337 26.01906769 62.11651315 26 60 C24.02 60 22.04 60 20 60 C20 60.66 20 61.32 20 62 C17.21978582 62.92673806 15.52766109 63.12855766 12.65625 63.1328125 C11.82222656 63.13410156 10.98820312 63.13539063 10.12890625 63.13671875 C9.26136719 63.13285156 8.39382813 63.12898437 7.5 63.125 C6.19869141 63.13080078 6.19869141 63.13080078 4.87109375 63.13671875 C4.03707031 63.13542969 3.20304687 63.13414062 2.34375 63.1328125 C1.58255859 63.13168457 0.82136719 63.13055664 0.03710938 63.12939453 C-2 63 -2 63 -5 62 C-5 61.34 -5 60.68 -5 60 C-6.98 60 -8.96 60 -11 60 C-11.226875 59.21625 -11.45375 58.4325 -11.6875 57.625 C-13.34316347 54.31367306 -14.59031406 54.164283 -18 53 C-20.6858923 51.0815055 -20.9732378 50.1240793 -21.6875 46.8125 C-21.8421875 45.4203125 -21.8421875 45.4203125 -22 44 C-22.66 44 -23.32 44 -24 44 C-24 36.08 -24 28.16 -24 20 C-23.34 20 -22.68 20 -22 20 C-21.67 18.35 -21.34 16.7 -21 15 C-20.34 15 -19.68 15 -19 15 C-18.67 14.01 -18.34 13.02 -18 12 C-17.34 12 -16.68 12 -16 12 C-15.67 11.01 -15.34 10.02 -15 9 C-13.125 6.8125 -13.125 6.8125 -11 5 C-10.01 5 -9.02 5 -8 5 C-8 4.34 -8 3.68 -8 3 C-5.36 2.67 -2.72 2.34 0 2 C0 1.34 0 0.68 0 0 Z " fill="#08090A" transform="translate(486,643)"/>
<path d="M0 0 C4.29 0 8.58 0 13 0 C13 13.2 13 26.4 13 40 C13.99 40 14.98 40 16 40 C16 39.34 16 38.68 16 38 C18.97 37.505 18.97 37.505 22 37 C22 36.34 22 35.68 22 35 C28.27 35 34.54 35 41 35 C41 35.66 41 36.32 41 37 C43.97 37.495 43.97 37.495 47 38 C47 38.66 47 39.32 47 40 C48.32 40.33 49.64 40.66 51 41 C51 41.66 51 42.32 51 43 C51.99 43 52.98 43 54 43 C54 43.66 54 44.32 54 45 C54.66 45 55.32 45 56 45 C56 45.66 56 46.32 56 47 C56.66 47 57.32 47 58 47 C58 48.32 58 49.64 58 51 C58.66 51 59.32 51 60 51 C60.495 53.97 60.495 53.97 61 57 C61.66 57 62.32 57 63 57 C63 63.27 63 69.54 63 76 C62.34 76 61.68 76 61 76 C60.67 78.31 60.34 80.62 60 83 C59.34 83 58.68 83 58 83 C57.92007813 83.75023437 57.84015625 84.50046875 57.7578125 85.2734375 C56.81899705 88.65123742 55.66091566 89.55681177 52.875 91.625 C52.12992187 92.19476562 51.38484375 92.76453125 50.6171875 93.3515625 C43.37450877 97.9133691 38.01317726 98.40192838 29.5625 98.1875 C28.54478516 98.17396484 27.52707031 98.16042969 26.47851562 98.14648438 C23.98511786 98.1113661 21.49284488 98.06218559 19 98 C19 97.34 19 96.68 19 96 C18.01 96 17.02 96 16 96 C16 95.34 16 94.68 16 94 C15.01 94 14.02 94 13 94 C13 94.99 13 95.98 13 97 C8.71 97 4.42 97 0 97 C0 64.99 0 32.98 0 0 Z " fill="#08090A" transform="translate(227,608)"/>
<path d="M0 0 C5.61 0 11.22 0 17 0 C17 0.66 17 1.32 17 2 C19.64 2.33 22.28 2.66 25 3 C25.3403125 4.2065625 25.3403125 4.2065625 25.6875 5.4375 C26.120625 6.283125 26.55375 7.12875 27 8 C29.54775306 8.89386164 29.54775306 8.89386164 32 9 C32.495 10.98 32.495 10.98 33 13 C33.66 13 34.32 13 35 13 C35.495 15.475 35.495 15.475 36 18 C36.99 18.33 37.98 18.66 39 19 C39.99550706 23.95342266 40.13097403 28.65510691 40.09765625 33.6796875 C40.0962413 34.49245148 40.09482635 35.30521545 40.09336853 36.14260864 C40.08780335 38.72011101 40.0752574 41.2975242 40.0625 43.875 C40.0574805 45.63020707 40.05291838 47.38541552 40.04882812 49.140625 C40.03784534 53.42711732 40.02060492 57.71354357 40 62 C35.71 62 31.42 62 27 62 C27 61.34 27 60.68 27 60 C24.69 60 22.38 60 20 60 C20 60.66 20 61.32 20 62 C17.21978582 62.92673806 15.52766109 63.12855766 12.65625 63.1328125 C11.82222656 63.13410156 10.98820312 63.13539063 10.12890625 63.13671875 C9.26136719 63.13285156 8.39382813 63.12898437 7.5 63.125 C6.19869141 63.13080078 6.19869141 63.13080078 4.87109375 63.13671875 C4.03707031 63.13542969 3.20304687 63.13414062 2.34375 63.1328125 C1.58255859 63.13168457 0.82136719 63.13055664 0.03710938 63.12939453 C-2 63 -2 63 -5 62 C-5 61.34 -5 60.68 -5 60 C-6.65 60 -8.3 60 -10 60 C-10 59.34 -10 58.68 -10 58 C-10.99 57.67 -11.98 57.34 -13 57 C-13 56.34 -13 55.68 -13 55 C-13.78375 54.773125 -14.5675 54.54625 -15.375 54.3125 C-18.65651118 52.67174441 -18.87345053 51.37964841 -20 48 C-20.66 47.67 -21.32 47.34 -22 47 C-22.4140625 44.93359375 -22.4140625 44.93359375 -22.625 42.4375 C-22.73714844 41.19806641 -22.73714844 41.19806641 -22.8515625 39.93359375 C-22.92503906 38.97646484 -22.92503906 38.97646484 -23 38 C-23.66 38 -24.32 38 -25 38 C-25 33.71 -25 29.42 -25 25 C-24.34 25 -23.68 25 -23 25 C-22.67 22.69 -22.34 20.38 -22 18 C-21.34 18 -20.68 18 -20 18 C-19.67 16.35 -19.34 14.7 -19 13 C-18.01 12.67 -17.02 12.34 -16 12 C-15.67 11.01 -15.34 10.02 -15 9 C-10.54285714 5 -10.54285714 5 -8 5 C-8 4.34 -8 3.68 -8 3 C-5.36 2.34 -2.72 1.68 0 1 C0 0.67 0 0.34 0 0 Z " fill="#08090B" transform="translate(329,643)"/>
<path d="M0 0 C4.62 0 9.24 0 14 0 C14 13.2 14 26.4 14 40 C14.66 40 15.32 40 16 40 C16 39.34 16 38.68 16 38 C18.97 37.505 18.97 37.505 22 37 C22 36.34 22 35.68 22 35 C30.25 35 38.5 35 47 35 C47 39.62 47 44.24 47 49 C34.625 49.495 34.625 49.495 22 50 C22 50.66 22 51.32 22 52 C20.02 52.66 18.04 53.32 16 54 C15.19946382 58.21869861 14.8647802 62.20768574 14.875 66.5 C14.87242187 67.5828125 14.86984375 68.665625 14.8671875 69.78125 C14.99727272 72.93390353 15.4123126 75.90298066 16 79 C17.485 79.495 17.485 79.495 19 80 C19 80.66 19 81.32 19 82 C20.98 82.33 22.96 82.66 25 83 C25 83.66 25 84.32 25 85 C32.26 85 39.52 85 47 85 C47 89.62 47 94.24 47 99 C38.75 99 30.5 99 22 99 C22 98.34 22 97.68 22 97 C21.01 97 20.02 97 19 97 C19 96.34 19 95.68 19 95 C17.35 95 15.7 95 14 95 C14 95.66 14 96.32 14 97 C9.38 97 4.76 97 0 97 C0 64.99 0 32.98 0 0 Z " fill="#0A0B0C" transform="translate(542,608)"/>
<path d="M0 0 C5.61 0 11.22 0 17 0 C17 0.66 17 1.32 17 2 C19.31 2.33 21.62 2.66 24 3 C24 3.66 24 4.32 24 5 C24.7425 5.0825 25.485 5.165 26.25 5.25 C29.56331349 6.15363095 30.88115832 7.33182899 33 10 C33 10.99 33 11.98 33 13 C33.66 13 34.32 13 35 13 C35.495 15.475 35.495 15.475 36 18 C36.99 18.33 37.98 18.66 39 19 C39 20.98 39 22.96 39 25 C39.66 25 40.32 25 41 25 C41 37.21 41 49.42 41 62 C36.38 62 31.76 62 27 62 C26.67 48.8 26.34 35.6 26 22 C25.34 22 24.68 22 24 22 C23.505 20.515 23.505 20.515 23 19 C22.01 18.34 21.02 17.68 20 17 C20 16.34 20 15.68 20 15 C18.02 14.67 16.04 14.34 14 14 C14 13.34 14 12.68 14 12 C10.7 12 7.4 12 4 12 C4 12.66 4 13.32 4 14 C2.02 14.33 0.04 14.66 -2 15 C-2.33 15.99 -2.66 16.98 -3 18 C-4 19 -5 20 -6 21 C-6.33 21.99 -6.66 22.98 -7 24 C-7.66 24 -8.32 24 -9 24 C-9.33 36.54 -9.66 49.08 -10 62 C-13.96 62 -17.92 62 -22 62 C-22 43.52 -22 25.04 -22 6 C-14.08 5.505 -14.08 5.505 -6 5 C-5.67 4.01 -5.34 3.02 -5 2 C-3.35 2 -1.7 2 0 2 C0 1.34 0 0.68 0 0 Z " fill="#050607" transform="translate(409,643)"/>
<path d="M0 0 C4.29 0 8.58 0 13 0 C13 6.27 13 12.54 13 19 C19.27 19 25.54 19 32 19 C32 23.62 32 28.24 32 33 C25.73 33 19.46 33 13 33 C13 40.92 13 48.84 13 57 C13.66 57 14.32 57 15 57 C15.061875 57.78375 15.12375 58.5675 15.1875 59.375 C15.455625 60.24125 15.72375 61.1075 16 62 C18.45704762 63.23290201 18.45704762 63.23290201 21 64 C21.495 64.99 21.495 64.99 22 66 C24.02463255 66.65213292 24.02463255 66.65213292 26 67 C26 67.66 26 68.32 26 69 C27.98 69 29.96 69 32 69 C32 73.62 32 78.24 32 83 C30.411875 83.020625 28.82375 83.04125 27.1875 83.0625 C25.84751953 83.07990234 25.84751953 83.07990234 24.48046875 83.09765625 C22 83 22 83 19 82 C19 81.34 19 80.68 19 80 C18.01 80 17.02 80 16 80 C16 79.34 16 78.68 16 78 C15.071875 77.731875 14.14375 77.46375 13.1875 77.1875 C10.20486385 76.07632183 8.88134543 75.47545451 7 73 C6.67 72.01 6.34 71.02 6 70 C5.34 69.67 4.68 69.34 4 69 C3.375 65.9375 3.375 65.9375 3 63 C2.34 63 1.68 63 1 63 C-0.06782486 59.79652541 -0.12058306 57.51812177 -0.11352539 54.15161133 C-0.11344986 52.9505928 -0.11337433 51.74957428 -0.11329651 50.51216125 C-0.10813522 49.21521835 -0.10297394 47.91827545 -0.09765625 46.58203125 C-0.09579077 45.24110466 -0.09436748 43.90017739 -0.09336853 42.55924988 C-0.08955356 39.03290927 -0.07973199 35.50660996 -0.06866455 31.98028564 C-0.0584285 28.38074299 -0.05386621 24.78119365 -0.04882812 21.18164062 C-0.0381088 14.12107526 -0.02052025 7.06054467 0 0 Z " fill="#090B0B" transform="translate(641,624)"/>
<path d="M0 0 C2.08326131 -0.02709444 4.16662441 -0.04643873 6.25 -0.0625 C7.41015625 -0.07410156 8.5703125 -0.08570313 9.765625 -0.09765625 C12.40977128 -0.01782092 14.49826091 0.21356222 17 1 C17 1.66 17 2.32 17 3 C17.78375 3.226875 18.5675 3.45375 19.375 3.6875 C22 5 22 5 23.1875 7.5625 C23.455625 8.366875 23.72375 9.17125 24 10 C24.66 10.33 25.32 10.66 26 11 C26 15.29 26 19.58 26 24 C25.34 24 24.68 24 24 24 C23.6596875 25.36125 23.6596875 25.36125 23.3125 26.75 C21.79328824 30.5118577 20.42201175 31.88161177 17 34 C15.68 34 14.36 34 13 34 C13 34.66 13 35.32 13 36 C8.71 36 4.42 36 0 36 C0 35.34 0 34.68 0 34 C-1.32 33.67 -2.64 33.34 -4 33 C-4 32.34 -4 31.68 -4 31 C-4.804375 30.79375 -5.60875 30.5875 -6.4375 30.375 C-7.283125 29.92125 -8.12875 29.4675 -9 29 C-9.8125 25.875 -9.8125 25.875 -10 23 C-10.66 23 -11.32 23 -12 23 C-12 19.7 -12 16.4 -12 13 C-11.34 13 -10.68 13 -10 13 C-9.67 11.02 -9.34 9.04 -9 7 C-8.34 7 -7.68 7 -7 7 C-6.67 6.01 -6.34 5.02 -6 4 C-4.35 3.67 -2.7 3.34 -1 3 C-0.67 2.01 -0.34 1.02 0 0 Z " fill="#F6F7F7" transform="translate(487,657)"/>
<path d="M0 0 C1.42119141 -0.00386719 1.42119141 -0.00386719 2.87109375 -0.0078125 C5.26390459 0.11026525 7.27586153 0.44387365 9.5625 1.125 C9.5625 1.785 9.5625 2.445 9.5625 3.125 C10.2225 3.125 10.8825 3.125 11.5625 3.125 C11.5625 3.785 11.5625 4.445 11.5625 5.125 C12.5525 5.125 13.5425 5.125 14.5625 5.125 C16.70108594 6.69054375 17.4720481 7.57133064 17.90307617 10.2097168 C17.8795105 11.38014526 17.8795105 11.38014526 17.85546875 12.57421875 C17.8409668 13.84555664 17.8409668 13.84555664 17.82617188 15.14257812 C17.80103516 16.02365234 17.77589844 16.90472656 17.75 17.8125 C17.72969727 19.15151367 17.72969727 19.15151367 17.70898438 20.51757812 C17.67364079 22.72066166 17.62430493 24.92252582 17.5625 27.125 C16.9025 27.125 16.2425 27.125 15.5625 27.125 C15.0675 28.61 15.0675 28.61 14.5625 30.125 C12.56128825 32.49006843 11.59450339 33.1143322 8.5625 34.125 C8.2325 34.785 7.9025 35.445 7.5625 36.125 C3.2725 36.125 -1.0175 36.125 -5.4375 36.125 C-5.4375 35.465 -5.4375 34.805 -5.4375 34.125 C-7.0875 34.125 -8.7375 34.125 -10.4375 34.125 C-10.9325 32.64 -10.9325 32.64 -11.4375 31.125 C-12.241875 30.856875 -13.04625 30.58875 -13.875 30.3125 C-16.4375 29.125 -16.4375 29.125 -17.75 26.625 C-18.98027095 20.36180242 -19.52972823 13.92292793 -16.4375 8.125 C-15.7775 8.125 -15.1175 8.125 -14.4375 8.125 C-14.1075 6.805 -13.7775 5.485 -13.4375 4.125 C-11.7875 3.795 -10.1375 3.465 -8.4375 3.125 C-8.4375 2.465 -8.4375 1.805 -8.4375 1.125 C-5.36792902 0.10180967 -3.21309677 -0.00871939 0 0 Z " fill="#F6F7F7" transform="translate(337.4375,656.875)"/>
<path d="M0 0 C1.1446875 -0.00257813 2.289375 -0.00515625 3.46875 -0.0078125 C6.5 0.125 6.5 0.125 9.5 1.125 C9.5 1.785 9.5 2.445 9.5 3.125 C10.11875 3.269375 10.7375 3.41375 11.375 3.5625 C13.5 4.125 13.5 4.125 15.5 5.125 C17.27501595 9.37503819 17.77182367 13.04202887 17.75 17.625 C17.75773437 19.24921875 17.75773437 19.24921875 17.765625 20.90625 C17.42997392 24.97355129 16.58673403 28.54923566 14.25 31.9375 C11.78607795 33.6094471 9.42123204 33.80041866 6.5 34.125 C6.5 34.785 6.5 35.445 6.5 36.125 C2.54 36.125 -1.42 36.125 -5.5 36.125 C-5.5 35.465 -5.5 34.805 -5.5 34.125 C-7.15 33.795 -8.8 33.465 -10.5 33.125 C-10.5 32.465 -10.5 31.805 -10.5 31.125 C-11.304375 30.898125 -12.10875 30.67125 -12.9375 30.4375 C-14.2059375 29.7878125 -14.2059375 29.7878125 -15.5 29.125 C-16.3125 26.5 -16.3125 26.5 -16.5 24.125 C-17.16 24.125 -17.82 24.125 -18.5 24.125 C-18.5 19.835 -18.5 15.545 -18.5 11.125 C-17.84 11.125 -17.18 11.125 -16.5 11.125 C-16.17 9.805 -15.84 8.485 -15.5 7.125 C-14.84 7.125 -14.18 7.125 -13.5 7.125 C-13.17 6.135 -12.84 5.145 -12.5 4.125 C-8.92759227 -0.09693641 -5.29198021 -0.01191887 0 0 Z " fill="#F7F7F8" transform="translate(258.5,656.875)"/>
<path d="M0 0 C12 0 12 0 14 1 C14 20.47 14 39.94 14 60 C9.38 60 4.76 60 0 60 C0 40.2 0 20.4 0 0 Z " fill="#090A0C" transform="translate(607,624)"/>
<path d="M0 0 C0.99 0 1.98 0 3 0 C3 7.59 3 15.18 3 23 C8.28 23 13.56 23 19 23 C19 23.33 19 23.66 19 24 C13.72 24 8.44 24 3 24 C3 55.02 3 86.04 3 118 C8.28 118 13.56 118 19 118 C19 118.66 19 119.32 19 120 C20.19625 119.979375 21.3925 119.95875 22.625 119.9375 C26.18004869 119.93117429 29.50555624 120.30111125 33 121 C33 121.66 33 122.32 33 123 C36.3 123.33 39.6 123.66 43 124 C43 124.66 43 125.32 43 126 C45.31 126.33 47.62 126.66 50 127 C50 127.66 50 128.32 50 129 C51.98 129.33 53.96 129.66 56 130 C52.96603854 131.33647923 51.78363489 130.92549343 48.57421875 129.8203125 C47.27388694 129.26624655 45.97839081 128.70071939 44.6875 128.125 C39.73267676 125.93507812 35.41060023 124.54595966 30 124 C30 123.34 30 122.68 30 122 C29.01257813 121.93941406 28.02515625 121.87882812 27.0078125 121.81640625 C25.08582031 121.69072266 25.08582031 121.69072266 23.125 121.5625 C21.21074219 121.44068359 21.21074219 121.44068359 19.2578125 121.31640625 C16 121 16 121 14 120 C7.07 119.505 7.07 119.505 0 119 C0 87.98 0 56.96 0 25 C-30.69 25 -61.38 25 -93 25 C-93 24.67 -93 24.34 -93 24 C-61.65 24 -30.3 24 2 24 C2.6037173 15.76769636 2.6037173 15.76769636 0 9 C-0.07179964 7.48071962 -0.08392007 5.95832518 -0.0625 4.4375 C-0.05347656 3.61121094 -0.04445313 2.78492188 -0.03515625 1.93359375 C-0.02355469 1.29550781 -0.01195312 0.65742188 0 0 Z " fill="#FED5D7" transform="translate(448,332)"/>
<path d="M0 0 C3.94690003 -0.05003872 7.89367309 -0.08601633 11.84082031 -0.10986328 C13.83144637 -0.12467591 15.82198437 -0.15010992 17.8125 -0.17578125 C25.16576664 -0.21291896 31.86611907 0.23399486 39 2 C40.6653455 2.33987241 42.33172141 2.67483015 44 3 C44 3.66 44 4.32 44 5 C45.32 5.33 46.64 5.66 48 6 C45.69 6 43.38 6 41 6 C41 5.34 41 4.68 41 4 C35.39 3.67 29.78 3.34 24 3 C24 2.34 24 1.68 24 1 C16.74 1 9.48 1 2 1 C2 32.02 2 63.04 2 95 C6.29 95 10.58 95 15 95 C18.00518091 95.28284056 21.00890943 95.5944284 24 96 C24 96.33 24 96.66 24 97 C8.07568438 97.22463768 8.07568438 97.22463768 1 96 C-0.88885195 94.11114805 -0.12010635 91.35948241 -0.12442017 88.84675598 C-0.12082489 87.9620311 -0.11722961 87.07730621 -0.11352539 86.16577148 C-0.11367142 85.23903625 -0.11381744 84.31230103 -0.1139679 83.35748291 C-0.11326838 80.27866313 -0.10547421 77.19990303 -0.09765625 74.12109375 C-0.09579221 71.99259982 -0.09436824 69.86410547 -0.09336853 67.73561096 C-0.08954228 62.1213768 -0.07971108 56.50716832 -0.06866455 50.89294434 C-0.05845273 45.16886747 -0.0538714 39.44478647 -0.04882812 33.72070312 C-0.03808891 22.48045744 -0.0210112 11.24023085 0 0 Z " fill="#FDA0A1" transform="translate(449,132)"/>
<path d="M0 0 C0.33 1.32 0.66 2.64 1 4 C1.66 4 2.32 4 3 4 C3.33 11.26 3.66 18.52 4 26 C35.02 26 66.04 26 98 26 C98 21.38 98 16.76 98 12 C97.34 12 96.68 12 96 12 C96 9.03 96 6.06 96 3 C96.99 3 97.98 3 99 3 C99 11.25 99 19.5 99 28 C67.32 28 35.64 28 3 28 C1.40587716 24.81175432 1.89825265 21.37103338 1.9375 17.875 C1.94201172 17.12089844 1.94652344 16.36679687 1.95117188 15.58984375 C1.96296501 13.72652873 1.98090058 11.86325445 2 10 C1.34 10 0.68 10 0 10 C0 6.7 0 3.4 0 0 Z " fill="#EE8589" transform="translate(352,552)"/>
<path d="M0 0 C0.99 0 1.98 0 3 0 C3 7.59 3 15.18 3 23 C8.28 23 13.56 23 19 23 C19 23.33 19 23.66 19 24 C13.72 24 8.44 24 3 24 C3 55.02 3 86.04 3 118 C8.28 118 13.56 118 19 118 C19 118.66 19 119.32 19 120 C20.19625 119.979375 21.3925 119.95875 22.625 119.9375 C26.18004869 119.93117429 29.50555624 120.30111125 33 121 C33 121.66 33 122.32 33 123 C36.3 123.33 39.6 123.66 43 124 C43 124.66 43 125.32 43 126 C45.31 126.33 47.62 126.66 50 127 C50 127.66 50 128.32 50 129 C51.98 129.33 53.96 129.66 56 130 C52.96603854 131.33647923 51.78363489 130.92549343 48.57421875 129.8203125 C47.27388694 129.26624655 45.97839081 128.70071939 44.6875 128.125 C39.73267676 125.93507812 35.41060023 124.54595966 30 124 C30 123.34 30 122.68 30 122 C29.01257813 121.93941406 28.02515625 121.87882812 27.0078125 121.81640625 C25.08582031 121.69072266 25.08582031 121.69072266 23.125 121.5625 C21.21074219 121.44068359 21.21074219 121.44068359 19.2578125 121.31640625 C16 121 16 121 14 120 C11.9625237 119.77141886 9.91959697 119.58975722 7.875 119.4375 C6.23144531 119.31181641 6.23144531 119.31181641 4.5546875 119.18359375 C3.71164062 119.12300781 2.86859375 119.06242187 2 119 C1.99576806 118.43916497 1.99153612 117.87832994 1.98717594 117.30049992 C1.88400153 103.67238704 1.7753207 90.04432775 1.66066074 76.4163065 C1.60538055 69.82597632 1.55195255 63.23564176 1.50268555 56.64526367 C1.45511699 50.29104033 1.40277719 43.93687292 1.34705925 37.58271599 C1.32660156 35.15251995 1.30789427 32.72230855 1.29092598 30.29208565 C1.2669573 26.90112857 1.2368928 23.51027834 1.20532227 20.11938477 C1.1995668 19.10374954 1.19381134 18.08811432 1.18788147 17.04170227 C1.17809265 16.12318481 1.16830383 15.20466736 1.15821838 14.25831604 C1.15176583 13.45543435 1.14531328 12.65255266 1.1386652 11.82534122 C1.19788427 9.98071327 1.19788427 9.98071327 0 9 C-0.07179964 7.48071962 -0.08392007 5.95832518 -0.0625 4.4375 C-0.05347656 3.61121094 -0.04445313 2.78492188 -0.03515625 1.93359375 C-0.02355469 1.29550781 -0.01195312 0.65742188 0 0 Z " fill="#FE9091" transform="translate(448,332)"/>
<path d="M0 0 C25 0 25 0 31 1 C31 1.33 31 1.66 31 2 C26.545 2.495 26.545 2.495 22 3 C22 2.34 22 1.68 22 1 C15.4 1 8.8 1 2 1 C2 31.36 2 61.72 2 93 C3.32 93.33 4.64 93.66 6 94 C4.02 94 2.04 94 0 94 C0 62.98 0 31.96 0 0 Z " fill="#C71F23" transform="translate(227,356)"/>
<path d="M0 0 C6.27 0 12.54 0 19 0 C19 0.33 19 0.66 19 1 C10.585 1.495 10.585 1.495 2 2 C2.33 31.37 2.66 60.74 3 91 C6.3 91.66 9.6 92.32 13 93 C13 93.33 13 93.66 13 94 C8.71 94 4.42 94 0 94 C0 62.98 0 31.96 0 0 Z " fill="#C81D21" transform="translate(227,133)"/>
<path d="M0 0 C4.62 0 9.24 0 14 0 C14 4.62 14 9.24 14 14 C9.38 14 4.76 14 0 14 C0 9.38 0 4.76 0 0 Z " fill="#050605" transform="translate(607,691)"/>
<path d="M0 0 C27 0 27 0 35 2 C35 2.33 35 2.66 35 3 C31.04 3 27.08 3 23 3 C23 2.34 23 1.68 23 1 C15.74 1 8.48 1 1 1 C1 32.02 1 63.04 1 95 C5.29 95 9.58 95 14 95 C14 95.33 14 95.66 14 96 C9.38 96 4.76 96 0 96 C0 64.32 0 32.64 0 0 Z " fill="#FEC3C4" transform="translate(226,132)"/>
<path d="M0 0 C4.29 0 8.58 0 13 0 C13 13.2 13 26.4 13 40 C12.34 40 11.68 40 11 40 C11 27.46 11 14.92 11 2 C7.37 2 3.74 2 0 2 C0 1.34 0 0.68 0 0 Z " fill="#2D2E2E" transform="translate(543,608)"/>
<path d="M0 0 C5.61 0 11.22 0 17 0 C17 0.66 17 1.32 17 2 C18.794375 1.9690625 18.794375 1.9690625 20.625 1.9375 C24.18004869 1.93117429 27.50555624 2.30111125 31 3 C31 3.66 31 4.32 31 5 C34.3 5.33 37.6 5.66 41 6 C41 6.66 41 7.32 41 8 C43.31 8.33 45.62 8.66 48 9 C48 9.66 48 10.32 48 11 C49.98 11.33 51.96 11.66 54 12 C50.96603854 13.33647923 49.78363489 12.92549343 46.57421875 11.8203125 C45.27388694 11.26624655 43.97839081 10.70071939 42.6875 10.125 C37.73267676 7.93507812 33.41060023 6.54595966 28 6 C28 5.34 28 4.68 28 4 C26.51886719 3.90912109 26.51886719 3.90912109 25.0078125 3.81640625 C23.72648437 3.73261719 22.44515625 3.64882813 21.125 3.5625 C19.84882813 3.48128906 18.57265625 3.40007812 17.2578125 3.31640625 C14 3 14 3 12 2 C9.9625237 1.77141886 7.91959697 1.58975722 5.875 1.4375 C4.23144531 1.31181641 4.23144531 1.31181641 2.5546875 1.18359375 C1.71164062 1.12300781 0.86859375 1.06242187 0 1 C0 0.67 0 0.34 0 0 Z " fill="#FBBBBD" transform="translate(450,450)"/>
<path d="M0 0 C2.45466665 2.45466665 2.50698752 3.80307524 3.0625 7.1875 C3.2275 8.16847656 3.3925 9.14945312 3.5625 10.16015625 C3.91983697 12.47965602 4.2529839 14.79879306 4.5625 17.125 C4.69273694 19.89029711 4.69273694 19.89029711 6 21 C7.7272165 31.83241951 7.09980538 43.07361412 7 54 C6.67 54 6.34 54 6 54 C5.91697632 52.73555054 5.91697632 52.73555054 5.83227539 51.44555664 C5.6253495 48.32745699 5.41430883 45.2096715 5.20043945 42.09204102 C5.1086091 40.74091591 5.01843502 39.38967719 4.92993164 38.03833008 C4.80266594 36.09948332 4.66901017 34.16105931 4.53515625 32.22265625 C4.456604 31.05484619 4.37805176 29.88703613 4.29711914 28.68383789 C4.29229027 26.08395465 4.29229027 26.08395465 3 25 C2.76321284 22.30764224 2.57801975 19.63501844 2.4375 16.9375 C2.39431641 16.17888672 2.35113281 15.42027344 2.30664062 14.63867188 C2.20026367 12.75934562 2.09960066 10.87969756 2 9 C1.34 9 0.68 9 0 9 C0 6.03 0 3.06 0 0 Z " fill="#FDC8CA" transform="translate(667,302)"/>
<path d="M0 0 C0.99 0 1.98 0 3 0 C3 13.53 3 27.06 3 41 C-1.95 41 -6.9 41 -12 41 C-12 40.67 -12 40.34 -12 40 C-7.38 40 -2.76 40 2 40 C2 27.79 2 15.58 2 3 C1.34 3 0.68 3 0 3 C0 2.01 0 1.02 0 0 Z " fill="#B3B3B3" transform="translate(448,665)"/>
<path d="M0 0 C8.30501502 -0.21540385 15.9254819 0.02109306 24 2 C25.66539348 2.33963721 27.33177333 2.67456387 29 3 C29 3.66 29 4.32 29 5 C30.32 5.33 31.64 5.66 33 6 C30.69 6 28.38 6 26 6 C26 5.34 26 4.68 26 4 C20.39 3.67 14.78 3.34 9 3 C9 2.34 9 1.68 9 1 C6.03 1 3.06 1 0 1 C0 0.67 0 0.34 0 0 Z " fill="#FDB8BA" transform="translate(464,132)"/>
<path d="M0 0 C3.05072248 3.05072248 3.05947505 6.59369747 3.75 10.75 C3.90082031 11.54921875 4.05164063 12.3484375 4.20703125 13.171875 C5.03303651 18.04771188 5.07231092 21.34480881 3 26 C2.34 26 1.68 26 1 26 C0.67 17.42 0.34 8.84 0 0 Z " fill="#DE4A4D" transform="translate(576,552)"/>
<path d="M0 0 C0.33 0 0.66 0 1 0 C1 9.9 1 19.8 1 30 C4.63 30 8.26 30 12 30 C12 30.66 12 31.32 12 32 C7.71 32 3.42 32 -1 32 C-0.67 21.44 -0.34 10.88 0 0 Z " fill="#363737" transform="translate(437,673)"/>
<path d="M0 0 C10.85859801 -0.25991325 21.25704615 0.3999856 32 2 C32 2.33 32 2.66 32 3 C31.13197754 2.98952637 30.26395508 2.97905273 29.36962891 2.96826172 C26.15300472 2.93420284 22.93647233 2.90911233 19.71972656 2.89013672 C18.32679219 2.88007123 16.93387898 2.86641766 15.54101562 2.84912109 C13.5404564 2.8248978 11.53974385 2.81459186 9.5390625 2.8046875 C8.33459473 2.79421387 7.13012695 2.78374023 5.88916016 2.77294922 C2.87158505 2.69539186 2.87158505 2.69539186 1 5 C0.67 3.35 0.34 1.7 0 0 Z " fill="#DB2E33" transform="translate(451,356)"/>
<path d="M0 0 C0.66 0.33 1.32 0.66 2 1 C1.67 1.99 1.34 2.98 1 4 C0.85284801 5.62567079 0.75278133 7.25586857 0.68359375 8.88671875 C0.64169922 9.82451172 0.59980469 10.76230469 0.55664062 11.72851562 C0.49766602 13.19321289 0.49766602 13.19321289 0.4375 14.6875 C0.39431641 15.67556641 0.35113281 16.66363281 0.30664062 17.68164062 C0.20058346 20.12095546 0.09852286 22.56037113 0 25 C-0.33 25 -0.66 25 -1 25 C-1 23.35 -1 21.7 -1 20 C-1.66 20 -2.32 20 -3 20 C-3 15.71 -3 11.42 -3 7 C-2.34 7 -1.68 7 -1 7 C-0.67 4.69 -0.34 2.38 0 0 Z " fill="#6A6B6C" transform="translate(307,661)"/>
<path d="M0 0 C2 2 2 2 2 6 C2.99 6.33 3.98 6.66 5 7 C5.33 13.93 5.66 20.86 6 28 C5.34 28 4.68 28 4 28 C3.87882813 26.78183594 3.75765625 25.56367187 3.6328125 24.30859375 C3.46386928 22.68486171 3.29458004 21.06116565 3.125 19.4375 C3.00705078 18.23770508 3.00705078 18.23770508 2.88671875 17.01367188 C2.36733623 12.11949043 1.41316749 7.70857906 0 3 C0 2.01 0 1.02 0 0 Z " fill="#FBB6B8" transform="translate(666,524)"/>
<path d="M0 0 C2 3 2 3 2 7 C2.66 7 3.32 7 4 7 C4.33 9.97 4.66 12.94 5 16 C5.66 16 6.32 16 7 16 C7 18.31 7 20.62 7 23 C3.84888788 20.47047712 3.41201983 18.23243734 2.8125 14.3125 C2.65394531 13.31863281 2.49539063 12.32476563 2.33203125 11.30078125 C2.16767578 10.16189453 2.16767578 10.16189453 2 9 C1.34 9 0.68 9 0 9 C0 6.03 0 3.06 0 0 Z " fill="#FBB8B8" transform="translate(345,529)"/>
<path d="M0 0 C1.32 0 2.64 0 4 0 C4 0.66 4 1.32 4 2 C5.12148438 2.09087891 5.12148438 2.09087891 6.265625 2.18359375 C7.74289062 2.30927734 7.74289062 2.30927734 9.25 2.4375 C10.71179688 2.55931641 10.71179688 2.55931641 12.203125 2.68359375 C14.56461753 2.95074584 16.71901065 3.35371968 19 4 C19 4.66 19 5.32 19 6 C21.97 6.495 21.97 6.495 25 7 C25 7.33 25 7.66 25 8 C22.69 8 20.38 8 18 8 C17.67 8.66 17.34 9.32 17 10 C16.34 8.35 15.68 6.7 15 5 C11.37 4.67 7.74 4.34 4 4 C3.67 3.01 3.34 2.02 3 1 C2.01 0.67 1.02 0.34 0 0 Z " fill="#D7373C" transform="translate(506,363)"/>
<path d="M0 0 C3.96 0 7.92 0 12 0 C12 0.66 12 1.32 12 2 C8.7 2 5.4 2 2 2 C1.67 4.31 1.34 6.62 1 9 C1.66 9 2.32 9 3 9 C3 10.98 3 12.96 3 15 C2.67 14.01 2.34 13.02 2 12 C1.34 12 0.68 12 0 12 C0 8.04 0 4.08 0 0 Z " fill="#3B3C3C" transform="translate(462,714)"/>
<path d="M0 0 C7.75 -0.125 7.75 -0.125 10 1 C10 1.66 10 2.32 10 3 C11.2375 2.95875 12.475 2.9175 13.75 2.875 C17.01637962 2.86341709 19.2146947 3.1431298 22 5 C22 5.66 22 6.32 22 7 C22.99 7.33 23.98 7.66 25 8 C23.35 8 21.7 8 20 8 C20 7.34 20 6.68 20 6 C15.71 5.34 11.42 4.68 7 4 C7 3.34 7 2.68 7 2 C4.69 1.67 2.38 1.34 0 1 C0 0.67 0 0.34 0 0 Z " fill="#F5A2A4" transform="translate(284,140)"/>
<path d="M0 0 C0.99 0.33 1.98 0.66 3 1 C4.72005735 8.43993062 4.65642737 16.54607684 3 24 C2.01 24.33 1.02 24.66 0 25 C0 23.68 0 22.36 0 21 C0.66 21 1.32 21 2 21 C2 14.73 2 8.46 2 2 C1.34 2 0.68 2 0 2 C0 1.34 0 0.68 0 0 Z " fill="#A6A6A6" transform="translate(288,663)"/>
<path d="M0 0 C0.33 0.99 0.66 1.98 1 3 C1.66 3 2.32 3 3 3 C3.67258667 5.33163378 4.33847444 7.6652039 5 10 C5.2784375 10.928125 5.2784375 10.928125 5.5625 11.875 C6.11081629 14.53825057 6.09484302 17.03318657 6.0625 19.75 C6.05347656 20.73484375 6.04445313 21.7196875 6.03515625 22.734375 C6.02355469 23.48203125 6.01195312 24.2296875 6 25 C5.67 25 5.34 25 5 25 C5 22.69 5 20.38 5 18 C4.34 18 3.68 18 3 18 C2.67 14.04 2.34 10.08 2 6 C1.34 6 0.68 6 0 6 C0 4.02 0 2.04 0 0 Z " fill="#FEBEBE" transform="translate(442,521)"/>
<path d="M0 0 C4.16660676 -0.05851976 8.33310637 -0.0937706 12.5 -0.125 C14.25957031 -0.15013672 14.25957031 -0.15013672 16.0546875 -0.17578125 C22.41081848 -0.21148985 27.92457188 0.09015007 34 2 C34 2.33 34 2.66 34 3 C30.04 3 26.08 3 22 3 C22 2.34 22 1.68 22 1 C14.74 1 7.48 1 0 1 C0 0.67 0 0.34 0 0 Z " fill="#F99294" transform="translate(227,132)"/>
<path d="M0 0 C0.99 0 1.98 0 3 0 C3 8.25 3 16.5 3 25 C2.67 25 2.34 25 2 25 C2 19.72 2 14.44 2 9 C1.34 9 0.68 9 0 9 C0 6.03 0 3.06 0 0 Z " fill="#FBAFB1" transform="translate(448,555)"/>
<path d="M0 0 C5.78898419 -0.20674944 10.42932723 0.40837921 16 2 C16 2.99 16 3.98 16 5 C16.99 5.33 17.98 5.66 19 6 C17.02 6 15.04 6 13 6 C13 5.34 13 4.68 13 4 C12.31292969 3.87882813 11.62585938 3.75765625 10.91796875 3.6328125 C10.01691406 3.46523437 9.11585938 3.29765625 8.1875 3.125 C7.29417969 2.96257812 6.40085937 2.80015625 5.48046875 2.6328125 C3 2 3 2 0 0 Z " fill="#F59C9F" transform="translate(500,138)"/>
<path d="M0 0 C5.61 0 11.22 0 17 0 C17 0.66 17 1.32 17 2 C18.794375 1.9690625 18.794375 1.9690625 20.625 1.9375 C24.18004869 1.93117429 27.50555624 2.30111125 31 3 C30.67 3.66 30.34 4.32 30 5 C27.37440156 4.6919856 24.74960194 4.37879818 22.125 4.0625 C21.00544922 3.93198242 21.00544922 3.93198242 19.86328125 3.79882812 C14.2265625 3.11328125 14.2265625 3.11328125 12 2 C9.9625237 1.77141886 7.91959697 1.58975722 5.875 1.4375 C4.23144531 1.31181641 4.23144531 1.31181641 2.5546875 1.18359375 C1.71164062 1.12300781 0.86859375 1.06242187 0 1 C0 0.67 0 0.34 0 0 Z " fill="#FCAEAF" transform="translate(450,450)"/>
<path d="M0 0 C0.99 0 1.98 0 3 0 C3 7.59 3 15.18 3 23 C2.67 23 2.34 23 2 23 C1.93941406 22.07316406 1.87882812 21.14632813 1.81640625 20.19140625 C1.73261719 18.99386719 1.64882813 17.79632813 1.5625 16.5625 C1.48128906 15.36753906 1.40007812 14.17257812 1.31640625 12.94140625 C1.32343886 10.11429756 1.32343886 10.11429756 0 9 C-0.07179964 7.48071962 -0.08392007 5.95832518 -0.0625 4.4375 C-0.05347656 3.61121094 -0.04445313 2.78492188 -0.03515625 1.93359375 C-0.02355469 1.29550781 -0.01195312 0.65742188 0 0 Z " fill="#FAA8AC" transform="translate(448,332)"/>
<path d="M0 0 C6.27 0 12.54 0 19 0 C19 0.33 19 0.66 19 1 C17.35 1 15.7 1 14 1 C14 1.66 14 2.32 14 3 C10.7 3 7.4 3 4 3 C4 2.34 4 1.68 4 1 C2.68 0.67 1.36 0.34 0 0 Z " fill="#B2B2B2" transform="translate(249,706)"/>
<path d="M0 0 C3.3 0 6.6 0 10 0 C10 0.66 10 1.32 10 2 C12.97 2.495 12.97 2.495 16 3 C16.33 3.99 16.66 4.98 17 6 C16.01 6 15.02 6 14 6 C14 5.34 14 4.68 14 4 C13.10796875 3.93941406 12.2159375 3.87882813 11.296875 3.81640625 C10.12640625 3.73261719 8.9559375 3.64882813 7.75 3.5625 C6.58984375 3.48128906 5.4296875 3.40007813 4.234375 3.31640625 C1.69022624 3.06752213 -0.55953248 2.71885058 -3 2 C-2.01 2 -1.02 2 0 2 C0 1.34 0 0.68 0 0 Z " fill="#878788" transform="translate(413,655)"/>
<path d="M0 0 C0.33 0 0.66 0 1 0 C1.33 4.29 1.66 8.58 2 13 C-2.62 13 -7.24 13 -12 13 C-11.67 12.34 -11.34 11.68 -11 11 C-7.37 11 -3.74 11 0 11 C0 7.37 0 3.74 0 0 Z " fill="#333433" transform="translate(619,692)"/>
<path d="M0 0 C0.33 1.32 0.66 2.64 1 4 C1.66 4 2.32 4 3 4 C3 11.26 3 18.52 3 26 C2.67 26 2.34 26 2 26 C2 20.72 2 15.44 2 10 C1.34 10 0.68 10 0 10 C0 6.7 0 3.4 0 0 Z " fill="#FB9C9E" transform="translate(352,552)"/>
<path d="M0 0 C6.27 0 12.54 0 19 0 C19 0.66 19 1.32 19 2 C20.32 2.33 21.64 2.66 23 3 C19.37 3 15.74 3 12 3 C12 2.34 12 1.68 12 1 C8.04 1 4.08 1 0 1 C0 0.67 0 0.34 0 0 Z " fill="#FBADAE" transform="translate(227,450)"/>
<path d="M0 0 C4.04165139 -0.02915731 8.0832755 -0.04685173 12.125 -0.0625 C13.83816406 -0.07506836 13.83816406 -0.07506836 15.5859375 -0.08789062 C16.69453125 -0.09111328 17.803125 -0.09433594 18.9453125 -0.09765625 C19.96125488 -0.10289307 20.97719727 -0.10812988 22.02392578 -0.11352539 C25.09114726 0.00347691 27.98633134 0.43223583 31 1 C31 1.33 31 1.66 31 2 C26.545 2.495 26.545 2.495 22 3 C22 2.34 22 1.68 22 1 C14.74 1 7.48 1 0 1 C0 0.67 0 0.34 0 0 Z " fill="#E5595B" transform="translate(227,356)"/>
<path d="M0 0 C0.66 0 1.32 0 2 0 C2 3.3 2 6.6 2 10 C2.66 10 3.32 10 4 10 C4.33 12.97 4.66 15.94 5 19 C4.34 19.33 3.68 19.66 3 20 C0.71415102 13.44723293 0.39405632 6.89598561 0 0 Z " fill="#D8262A" transform="translate(443,308)"/>
<path d="M0 0 C0.99 0 1.98 0 3 0 C3 0.99 3 1.98 3 3 C6.63 3 10.26 3 14 3 C14 3.66 14 4.32 14 5 C10.04 5 6.08 5 2 5 C2 4.34 2 3.68 2 3 C0.68 2.67 -0.64 2.34 -2 2 C-1.34 2 -0.68 2 0 2 C0 1.34 0 0.68 0 0 Z " fill="#2D2E2F" transform="translate(354,700)"/>
<path d="M0 0 C-0.66 1.32 -1.32 2.64 -2 4 C-8.93 3.505 -8.93 3.505 -16 3 C-16 2.34 -16 1.68 -16 1 C-13.89594609 0.83191581 -11.79175242 0.66558052 -9.6875 0.5 C-8.51574219 0.4071875 -7.34398437 0.314375 -6.13671875 0.21875 C-4.094806 0.07635011 -2.0468721 0 0 0 Z " fill="#1A1B1B" transform="translate(403,648)"/>
<path d="M0 0 C0.99 0 1.98 0 3 0 C3.33 0.66 3.66 1.32 4 2 C6.3140622 2.73075648 8.64828869 3.40138258 11 4 C11 4.66 11 5.32 11 6 C9.02 6.99 7.04 7.98 5 9 C4.67 8.34 4.34 7.68 4 7 C4.33 6.01 4.66 5.02 5 4 C3.68 4 2.36 4 1 4 C0.67 2.68 0.34 1.36 0 0 Z " fill="#DF3337" transform="translate(316,151)"/>
<path d="M0 0 C1.32 0.33 2.64 0.66 4 1 C3.01 1.495 3.01 1.495 2 2 C2 2.66 2 3.32 2 4 C-2.29 4 -6.58 4 -11 4 C-11 3.34 -11 2.68 -11 2 C-7.37 2 -3.74 2 0 2 C0 1.34 0 0.68 0 0 Z " fill="#313233" transform="translate(554,701)"/>
<path d="M0 0 C2.97 0 5.94 0 9 0 C9 0.66 9 1.32 9 2 C11.97 2.33 14.94 2.66 18 3 C18 3.66 18 4.32 18 5 C12.06 4.01 12.06 4.01 6 3 C6 2.34 6 1.68 6 1 C4.02 1 2.04 1 0 1 C0 0.67 0 0.34 0 0 Z " fill="#FDB4B5" transform="translate(250,453)"/>
<path d="M0 0 C2.475 0.495 2.475 0.495 5 1 C5 1.66 5 2.32 5 3 C6.62626404 4.38232443 8.2925002 5.71937515 10 7 C9.67 7.99 9.34 8.98 9 10 C5.79506864 7.50727561 2.72086797 5.02318663 0 2 C0 1.34 0 0.68 0 0 Z " fill="#FBC6C8" transform="translate(602,192)"/>
<path d="M0 0 C5.77807024 -0.2358396 10.51324804 0.13216954 16 2 C16 2.33 16 2.66 16 3 C10.72 2.67 5.44 2.34 0 2 C0 1.34 0 0.68 0 0 Z " fill="#F9C1C1" transform="translate(240,228)"/>
<path d="M0 0 C4.72463088 0.46319911 8.17057052 1.09891706 12 4 C12 4.66 12 5.32 12 6 C9.03 5.505 9.03 5.505 6 5 C6 4.34 6 3.68 6 3 C3.03 2.505 3.03 2.505 0 2 C0 1.34 0 0.68 0 0 Z " fill="#FBC7C8" transform="translate(532,370)"/>
<path d="M0 0 C0.99 0 1.98 0 3 0 C2.67 0.99 2.34 1.98 2 3 C-1.54377754 4.50524531 -5.46706136 4.09752721 -9.25 4.0625 C-10.51328125 4.05347656 -11.7765625 4.04445313 -13.078125 4.03515625 C-14.04234375 4.02355469 -15.0065625 4.01195312 -16 4 C-16 3.67 -16 3.34 -16 3 C-8.08 2.505 -8.08 2.505 0 2 C0 1.34 0 0.68 0 0 Z " fill="#727473" transform="translate(503,729)"/>
<path d="M0 0 C0.33 0 0.66 0 1 0 C1.08069658 2.95887459 1.14034665 5.9155659 1.1875 8.875 C1.22520508 10.13763672 1.22520508 10.13763672 1.26367188 11.42578125 C1.27333984 12.23144531 1.28300781 13.03710938 1.29296875 13.8671875 C1.3086792 14.61081543 1.32438965 15.35444336 1.34057617 16.12060547 C1.17199097 17.05090576 1.17199097 17.05090576 1 18 C0.01 18.66 -0.98 19.32 -2 20 C-2 18.68 -2 17.36 -2 16 C-1.34 16 -0.68 16 0 16 C0 10.72 0 5.44 0 0 Z " fill="#8A8B8B" transform="translate(512,703)"/>
<path d="M0 0 C2.94851556 2.34488245 3.93035506 3.42333987 4.390625 7.234375 C4.34421875 8.39453125 4.2978125 9.5546875 4.25 10.75 C4.21390625 11.92046875 4.1778125 13.0909375 4.140625 14.296875 C4.09421875 15.18890625 4.0478125 16.0809375 4 17 C3.34 16.67 2.68 16.34 2 16 C2.33 13.03 2.66 10.06 3 7 C2.34 7 1.68 7 1 7 C0.67 4.69 0.34 2.38 0 0 Z " fill="#858687" transform="translate(509,664)"/>
<path d="M0 0 C1.32 0.33 2.64 0.66 4 1 C4 1.66 4 2.32 4 3 C5.32 3.33 6.64 3.66 8 4 C7.01 5.485 7.01 5.485 6 7 C4.35 6.67 2.7 6.34 1 6 C0.67 4.02 0.34 2.04 0 0 Z " fill="#DA1F26" transform="translate(576,173)"/>
<path d="M0 0 C0.66 0 1.32 0 2 0 C2.33 1.98 2.66 3.96 3 6 C3.66 6 4.32 6 5 6 C5 7.65 5 9.3 5 11 C4.731875 10.360625 4.46375 9.72125 4.1875 9.0625 C3.11332248 6.66868314 3.11332248 6.66868314 0 6 C0 4.02 0 2.04 0 0 Z " fill="#E7595C" transform="translate(437,285)"/>
<path d="M0 0 C0.33 0.99 0.66 1.98 1 3 C1.66 3 2.32 3 3 3 C3.33 4.98 3.66 6.96 4 9 C4.66 9 5.32 9 6 9 C6 9.99 6 10.98 6 12 C4.68 11.34 3.36 10.68 2 10 C2 8.02 2 6.04 2 4 C1.34 4 0.68 4 0 4 C0 2.68 0 1.36 0 0 Z " fill="#E56568" transform="translate(429,485)"/>
<path d="M0 0 C3.32170493 2.68899923 4.50358331 6.08081344 6 10 C6 10.66 6 11.32 6 12 C5.34 12 4.68 12 4 12 C3.3291288 10.3767313 2.66342971 8.75132422 2 7.125 C1.62875 6.22007812 1.2575 5.31515625 0.875 4.3828125 C0 2 0 2 0 0 Z " fill="#FCD1D2" transform="translate(432,267)"/>
<path d="M0 0 C3.63 0 7.26 0 11 0 C11 0.66 11 1.32 11 2 C12.98 2 14.96 2 17 2 C17 2.33 17 2.66 17 3 C14.03 3 11.06 3 8 3 C8 2.34 8 1.68 8 1 C5.36 1 2.72 1 0 1 C0 0.67 0 0.34 0 0 Z " fill="#F79DA1" transform="translate(261,135)"/>
<path d="M0 0 C2.64 0.33 5.28 0.66 8 1 C7.01 2.485 7.01 2.485 6 4 C6 4.66 6 5.32 6 6 C4 6 4 6 1.875 4.125 C0 2 0 2 0 0 Z " fill="#DC2F33" transform="translate(535,482)"/>
<path d="M0 0 C1.98 0.99 1.98 0.99 4 2 C4 2.66 4 3.32 4 4 C4.99 4.33 5.98 4.66 7 5 C6.67 5.66 6.34 6.32 6 7 C4.125 6.875 4.125 6.875 2 6 C0.75 2.9375 0.75 2.9375 0 0 Z " fill="#D92128" transform="translate(361,401)"/>
<path d="M0 0 C0.99 0.33 1.98 0.66 3 1 C3.73046875 3.06640625 3.73046875 3.06640625 4.1875 5.5625 C4.34605469 6.38878906 4.50460937 7.21507812 4.66796875 8.06640625 C4.77753906 8.70449219 4.88710938 9.34257813 5 10 C4.34 10 3.68 10 3 10 C2.67 8.02 2.34 6.04 2 4 C1.34 4 0.68 4 0 4 C0 2.68 0 1.36 0 0 Z " fill="#777878" transform="translate(462,683)"/>
<path d="M0 0 C1.4800841 0.11362262 2.95910074 0.24122908 4.4375 0.375 C5.26121094 0.44460938 6.08492188 0.51421875 6.93359375 0.5859375 C7.95646484 0.79089844 7.95646484 0.79089844 9 1 C9.33 1.66 9.66 2.32 10 3 C8.68 3.33 7.36 3.66 6 4 C6 3.34 6 2.68 6 2 C4.02 2 2.04 2 0 2 C0 1.34 0 0.68 0 0 Z " fill="#D72E32" transform="translate(475,451)"/>
<path d="M0 0 C1.98 0 3.96 0 6 0 C4.79618552 2.49361571 3.54571278 4.68143083 2 7 C1.34 4.69 0.68 2.38 0 0 Z " fill="#DD2227" transform="translate(345,305)"/>
<path d="M0 0 C0.66 0 1.32 0 2 0 C2.33 1.65 2.66 3.3 3 5 C3.99 5.33 4.98 5.66 6 6 C6 6.66 6 7.32 6 8 C4.0625 7.6875 4.0625 7.6875 2 7 C1.67 6.01 1.34 5.02 1 4 C0.34 3.67 -0.32 3.34 -1 3 C-0.67 2.01 -0.34 1.02 0 0 Z " fill="#DA3C40" transform="translate(635,232)"/>
<path d="M0 0 C2.56616632 3.84924948 2.55097676 6.4349304 3 11 C2.67 10.34 2.34 9.68 2 9 C1.34 9 0.68 9 0 9 C0 6.03 0 3.06 0 0 Z " fill="#FDC6C7" transform="translate(345,529)"/>
<path d="M0 0 C0.99 0.33 1.98 0.66 3 1 C3.33 2.65 3.66 4.3 4 6 C4.66 6 5.32 6 6 6 C5.67 6.99 5.34 7.98 5 9 C1.13892543 6.42595029 1.05680308 4.38979741 0 0 Z " fill="#FAAFAE" transform="translate(551,500)"/>
<path d="M0 0 C1.32 0 2.64 0 4 0 C4.33 0.66 4.66 1.32 5 2 C5.99 2.33 6.98 2.66 8 3 C8 3.66 8 4.32 8 5 C7.01 5.33 6.02 5.66 5 6 C5 5.34 5 4.68 5 4 C4.01 3.67 3.02 3.34 2 3 C2 2.34 2 1.68 2 1 C1.34 0.67 0.68 0.34 0 0 Z " fill="#DC2E30" transform="translate(301,250)"/>
<path d="M0 0 C2.97 0 5.94 0 9 0 C9 0.66 9 1.32 9 2 C10.32 2.33 11.64 2.66 13 3 C10.69 3 8.38 3 6 3 C6 2.34 6 1.68 6 1 C4.02 1 2.04 1 0 1 C0 0.67 0 0.34 0 0 Z " fill="#EF7E81" transform="translate(484,135)"/>
<path d="M0 0 C0.99 0.33 1.98 0.66 3 1 C2.34 1 1.68 1 1 1 C1 1.66 1 2.32 1 3 C0.01 3.33 -0.98 3.66 -2 4 C-2.99 5.485 -2.99 5.485 -4 7 C-4.66 7 -5.32 7 -6 7 C-6 6.01 -6 5.02 -6 4 C-3 2 -3 2 0 2 C0 1.34 0 0.68 0 0 Z " fill="#A4A4A4" transform="translate(564,658)"/>
<path d="M0 0 C1.98 0 3.96 0 6 0 C6 0.66 6 1.32 6 2 C6.99 2.33 7.98 2.66 9 3 C8.34 3 7.68 3 7 3 C6.67 3.66 6.34 4.32 6 5 C5.01 4.34 4.02 3.68 3 3 C3 2.34 3 1.68 3 1 C2.01 0.67 1.02 0.34 0 0 Z " fill="#EA5758" transform="translate(272,360)"/>
<path d="M0 0 C0.33 0 0.66 0 1 0 C1 1.65 1 3.3 1 5 C1.66 5 2.32 5 3 5 C3 7.31 3 9.62 3 12 C2.67 10.68 2.34 9.36 2 8 C1.34 8 0.68 8 0 8 C0 5.36 0 2.72 0 0 Z " fill="#F6999E" transform="translate(442,296)"/>
<path d="M0 0 C0.33 0.99 0.66 1.98 1 3 C1.66 3 2.32 3 3 3 C3 5.64 3 8.28 3 11 C2.67 11 2.34 11 2 11 C2 9.35 2 7.7 2 6 C1.34 6 0.68 6 0 6 C0 4.02 0 2.04 0 0 Z " fill="#F39395" transform="translate(442,521)"/>
<path d="M0 0 C0.99 0.33 1.98 0.66 3 1 C3 1.66 3 2.32 3 3 C3.99 3 4.98 3 6 3 C6.33 3.99 6.66 4.98 7 6 C4.03 5.505 4.03 5.505 1 5 C0.67 3.35 0.34 1.7 0 0 Z " fill="#E0464C" transform="translate(586,402)"/>
<path d="M0 0 C0.33 0.99 0.66 1.98 1 3 C1.66 3 2.32 3 3 3 C3.33 4.98 3.66 6.96 4 9 C3.34 8.67 2.68 8.34 2 8 C2 7.34 2 6.68 2 6 C1.34 6 0.68 6 0 6 C0 4.02 0 2.04 0 0 Z " fill="#D81F23" transform="translate(650,260)"/>
</svg>
