<?xml version="1.0" encoding="UTF-8"?>
<svg xmlns="http://www.w3.org/2000/svg" xmlns:xlink="http://www.w3.org/1999/xlink" width="256px" height="256px" viewBox="0 0 256 256" version="1.1">
<g id="surface1">
<path style=" stroke:none;fill-rule:nonzero;fill:rgb(0%,56.862748%,88.627452%);fill-opacity:1;" d="M 256 128 C 256 57.308594 198.691406 0 128 0 C 57.308594 0 0 57.308594 0 128 C 0 198.691406 57.308594 256 128 256 C 198.691406 256 256 198.691406 256 128 Z M 256 128 "/>
<path style=" stroke:none;fill-rule:nonzero;fill:rgb(100%,100%,100%);fill-opacity:1;" d="M 206.824219 115.375 C 206.425781 115.050781 202.800781 112.324219 195.148438 112.324219 C 193.125 112.324219 191.101562 112.476562 189.101562 112.851562 C 187.625 102.675781 179.226562 97.726562 178.851562 97.5 L 176.800781 96.300781 L 175.449219 98.25 C 173.75 100.875 172.523438 103.75 171.800781 106.800781 C 170.425781 112.601562 171.25 118.050781 174.199219 122.699219 C 170.648438 124.675781 164.925781 125.175781 163.773438 125.199219 L 69.25 125.199219 C 66.773438 125.199219 64.773438 127.199219 64.773438 129.675781 C 64.675781 137.949219 66.074219 146.175781 68.898438 153.949219 C 72.148438 162.5 77 168.773438 83.300781 172.625 C 90.351562 176.949219 101.824219 179.425781 114.851562 179.425781 C 120.726562 179.449219 126.601562 178.898438 132.375 177.824219 C 140.398438 176.351562 148.125 173.550781 155.226562 169.523438 C 161.074219 166.125 166.351562 161.824219 170.824219 156.75 C 178.300781 148.273438 182.773438 138.824219 186.101562 130.449219 L 187.425781 130.449219 C 195.625 130.449219 200.675781 127.175781 203.449219 124.425781 C 205.300781 122.675781 206.75 120.550781 207.675781 118.175781 L 208.25 116.449219 Z M 78 122.476562 L 90.675781 122.476562 C 91.273438 122.476562 91.773438 121.976562 91.773438 121.375 L 91.773438 110.101562 C 91.773438 109.5 91.273438 109 90.675781 108.976562 L 78 108.976562 C 77.398438 108.976562 76.898438 109.476562 76.898438 110.074219 L 76.898438 121.375 C 76.898438 122 77.398438 122.476562 78 122.476562 M 95.476562 122.476562 L 108.148438 122.476562 C 108.75 122.476562 109.25 121.976562 109.25 121.375 L 109.25 110.101562 C 109.25 109.5 108.75 109 108.148438 108.976562 L 95.476562 108.976562 C 94.851562 108.976562 94.351562 109.476562 94.351562 110.101562 L 94.351562 121.375 C 94.351562 122 94.851562 122.476562 95.476562 122.476562 M 113.175781 122.5 L 125.851562 122.5 C 126.449219 122.5 126.949219 122 126.949219 121.398438 L 126.949219 110.125 C 126.949219 109.523438 126.449219 109.023438 125.851562 109 L 113.175781 109 C 112.574219 109 112.074219 109.5 112.074219 110.101562 L 112.074219 121.398438 C 112.074219 122 112.574219 122.476562 113.175781 122.5 M 130.699219 122.5 L 143.375 122.5 C 143.976562 122.5 144.476562 122 144.5 121.398438 L 144.5 110.125 C 144.5 109.5 144 109 143.375 109 L 130.699219 109 C 130.101562 109 129.601562 109.5 129.601562 110.101562 L 129.601562 121.398438 C 129.601562 122 130.074219 122.5 130.699219 122.5 M 95.449219 106.25 L 108.125 106.25 C 108.726562 106.25 109.226562 105.75 109.226562 105.125 L 109.226562 93.851562 C 109.226562 93.25 108.726562 92.75 108.125 92.75 L 95.449219 92.75 C 94.824219 92.75 94.351562 93.25 94.324219 93.851562 L 94.324219 105.125 C 94.351562 105.75 94.851562 106.25 95.449219 106.25 M 113.175781 106.25 L 125.851562 106.25 C 126.449219 106.25 126.949219 105.75 126.949219 105.125 L 126.949219 93.851562 C 126.949219 93.25 126.449219 92.75 125.851562 92.75 L 113.175781 92.75 C 112.574219 92.75 112.074219 93.25 112.074219 93.851562 L 112.074219 105.125 C 112.074219 105.75 112.574219 106.25 113.175781 106.25 M 130.699219 106.25 L 143.375 106.25 C 144 106.25 144.476562 105.75 144.5 105.125 L 144.5 93.851562 C 144.5 93.226562 144 92.75 143.375 92.75 L 130.699219 92.75 C 130.101562 92.75 129.601562 93.25 129.601562 93.851562 L 129.601562 105.125 C 129.601562 105.75 130.074219 106.25 130.699219 106.25 M 130.699219 90.023438 L 143.375 90.023438 C 144 90.023438 144.5 89.523438 144.5 88.898438 L 144.5 77.601562 C 144.5 77 144 76.5 143.375 76.5 L 130.699219 76.5 C 130.101562 76.5 129.601562 77 129.601562 77.601562 L 129.601562 88.898438 C 129.601562 89.523438 130.074219 90.023438 130.699219 90.023438 M 148.351562 122.5 L 161.023438 122.5 C 161.625 122.5 162.125 122 162.125 121.398438 L 162.125 110.125 C 162.125 109.5 161.625 109.023438 161.023438 109 L 148.351562 109 C 147.75 109 147.25 109.5 147.25 110.101562 L 147.25 121.398438 C 147.25 122 147.75 122.5 148.351562 122.5 "/>
</g>
</svg>
