<?xml version="1.0" encoding="UTF-8"?>
<svg xmlns="http://www.w3.org/2000/svg" xmlns:xlink="http://www.w3.org/1999/xlink" width="256px" height="256px" viewBox="0 0 256 256" version="1.1">
<g id="surface1">
<path style=" stroke:none;fill-rule:nonzero;fill:rgb(100%,61.56863%,4.313726%);fill-opacity:1;" d="M 24 123.039062 C 24 86.699219 43.703125 53.128906 75.667969 34.953125 C 107.714844 16.789062 146.949219 16.789062 178.996094 34.953125 C 210.964844 53.128906 230.667969 86.699219 230.667969 123.039062 C 230.667969 179.210938 184.40625 224.746094 127.339844 224.746094 C 70.273438 224.746094 24 179.199219 24 123.039062 Z M 24 123.039062 "/>
<path style=" stroke:none;fill-rule:nonzero;fill:rgb(100%,82.352942%,11.764706%);fill-opacity:1;" d="M 127.339844 214.25 C 178.507812 214.25 220 173.40625 220 123.039062 C 220 72.671875 178.507812 31.839844 127.339844 31.839844 C 76.160156 31.839844 34.667969 72.671875 34.667969 123.039062 C 34.667969 173.40625 76.160156 214.238281 127.339844 214.238281 Z M 127.339844 214.25 "/>
<path style=" stroke:none;fill-rule:nonzero;fill:rgb(100%,19.607843%,23.921569%);fill-opacity:1;" d="M 126.667969 161.207031 C 152.875 161.207031 161.332031 138.207031 161.332031 126.398438 C 161.332031 120.257812 157.140625 122.199219 150.421875 125.449219 C 144.214844 128.46875 135.863281 132.652344 126.699219 132.652344 C 107.519531 132.652344 92.03125 114.59375 92.03125 126.398438 C 92.03125 138.207031 100.457031 161.207031 126.699219 161.207031 Z M 126.667969 161.207031 "/>
<path style=" stroke:none;fill-rule:nonzero;fill:rgb(22.745098%,23.137255%,27.058825%);fill-opacity:1;" d="M 157.441406 98.238281 C 160.851562 99.390625 162.1875 106.273438 165.621094 104.480469 C 170.390625 101.996094 173.164062 96.929688 172.652344 91.636719 C 172.105469 86.316406 168.402344 81.855469 163.273438 80.339844 C 158.128906 78.785156 152.554688 80.4375 149.089844 84.542969 C 145.652344 88.640625 145.066406 94.355469 147.59375 99.050781 C 149.226562 102.070312 154.398438 97.164062 157.460938 98.207031 Z M 94.644531 98.238281 C 91.230469 99.390625 89.867188 106.273438 86.453125 104.480469 C 81.714844 102.03125 78.933594 96.949219 79.433594 91.636719 C 79.945312 86.355469 83.648438 81.898438 88.800781 80.339844 C 93.945312 78.785156 99.519531 80.4375 102.988281 84.542969 C 106.421875 88.640625 107.007812 94.355469 104.480469 99.050781 C 102.859375 102.070312 97.652344 97.164062 94.613281 98.207031 Z M 106.59375 155.199219 C 109.464844 149.480469 114.582031 145.207031 120.726562 143.402344 C 121.472656 143.1875 122.261719 144.042969 123.0625 145.226562 L 125.109375 148.492188 C 125.84375 149.558594 126.59375 150.355469 127.339844 150.355469 C 128.128906 150.355469 128.9375 149.566406 129.71875 148.523438 L 131.902344 145.300781 C 132.757812 144.128906 133.578125 143.296875 134.398438 143.542969 C 140.128906 145.332031 144.917969 149.257812 147.734375 154.484375 C 157.675781 146.761719 161.332031 134.164062 161.332031 126.398438 C 161.332031 120.980469 158.070312 121.855469 152.691406 124.375 L 146.121094 127.53125 C 140.574219 130.089844 133.878906 132.652344 126.667969 132.652344 C 119.457031 132.652344 112.777344 130.089844 107.222656 127.53125 L 100.9375 124.511719 C 95.390625 121.867188 92 120.863281 92 126.398438 C 92 133.898438 95.414062 145.929688 104.660156 153.707031 L 106.582031 155.199219 Z M 106.59375 155.199219 "/>
<path style=" stroke:none;fill-rule:nonzero;fill:rgb(100%,61.56863%,4.313726%);fill-opacity:1;" d="M 189.996094 110.570312 C 192.277344 110.589844 194.472656 109.703125 196.101562 108.101562 C 197.726562 106.5 198.648438 104.320312 198.667969 102.039062 C 198.667969 97.332031 194.785156 93.503906 189.996094 93.503906 C 185.246094 93.46875 181.367188 97.289062 181.332031 102.039062 C 181.332031 106.753906 185.214844 110.570312 189.996094 110.570312 Z M 66.003906 110.570312 C 70.753906 110.605469 74.632812 106.785156 74.667969 102.039062 C 74.667969 97.332031 70.785156 93.503906 66.003906 93.503906 C 63.722656 93.484375 61.527344 94.371094 59.898438 95.972656 C 58.273438 97.574219 57.351562 99.753906 57.332031 102.039062 C 57.332031 106.753906 61.214844 110.570312 66.003906 110.570312 Z M 48.160156 139.445312 C 43.839844 139.445312 40 141.171875 37.3125 144.351562 C 35.019531 147.128906 33.761719 150.617188 33.761719 154.21875 C 32.078125 153.722656 30.339844 153.457031 28.585938 153.429688 C 24.457031 153.429688 20.726562 154.988281 18.078125 157.792969 C 13.246094 162.703125 12.367188 170.273438 15.945312 176.160156 C 13.597656 178.046875 11.921875 180.644531 11.179688 183.5625 C 10.539062 185.929688 9.898438 190.921875 13.3125 196 C 10.707031 199.921875 10.332031 204.917969 12.320312 209.183594 C 14.859375 214.871094 20.960938 219.402344 32.480469 224.171875 L 35.039062 225.195312 C 43.230469 228.394531 50.753906 230.441406 50.804688 230.464844 C 60.296875 233.054688 70.089844 234.464844 79.945312 234.667969 C 95.574219 234.667969 106.753906 229.941406 113.171875 220.652344 C 123.09375 206.335938 122.15625 193.183594 110.25 180.511719 L 108.640625 178.871094 C 101.257812 171.574219 96.320312 160.84375 95.308594 158.476562 C 93.226562 151.488281 87.734375 143.722656 78.644531 143.722656 C 73.738281 143.796875 69.164062 146.207031 66.378906 150.175781 C 63.710938 146.871094 61.097656 144.277344 58.753906 142.773438 C 55.609375 140.683594 51.933594 139.53125 48.160156 139.445312 Z M 207.839844 139.445312 C 212.160156 139.445312 216.019531 141.171875 218.6875 144.351562 C 220.992188 147.148438 222.238281 150.625 222.238281 154.21875 C 223.925781 153.71875 225.675781 153.460938 227.433594 153.429688 C 231.574219 153.429688 235.308594 154.988281 237.941406 157.792969 C 242.777344 162.703125 243.65625 170.273438 240.074219 176.160156 C 242.421875 178.058594 244.097656 180.660156 244.820312 183.5625 C 245.460938 185.929688 246.101562 190.921875 242.6875 196 C 245.289062 199.945312 245.664062 204.917969 243.679688 209.183594 C 241.140625 214.871094 235.039062 219.402344 223.53125 224.171875 L 220.980469 225.195312 C 212.769531 228.394531 205.246094 230.441406 205.195312 230.464844 C 195.703125 233.054688 185.910156 234.464844 176.054688 234.667969 C 160.425781 234.667969 149.246094 229.941406 142.828125 220.652344 C 132.90625 206.335938 133.84375 193.183594 145.75 180.511719 L 147.359375 178.871094 C 154.773438 171.574219 159.703125 160.84375 160.714844 158.476562 C 162.792969 151.488281 168.265625 143.722656 177.355469 143.722656 C 182.261719 143.796875 186.835938 146.207031 189.621094 150.175781 C 192.289062 146.871094 194.902344 144.277344 197.28125 142.773438 C 199.882812 141.046875 202.859375 139.945312 205.960938 139.574219 Z M 207.839844 139.445312 "/>
<path style=" stroke:none;fill-rule:nonzero;fill:rgb(100%,82.352942%,11.764706%);fill-opacity:1;" d="M 104.375 214.742188 C 111.710938 204.136719 111.179688 196.179688 101.121094 186.292969 C 91.039062 176.394531 85.171875 161.886719 85.171875 161.886719 C 85.171875 161.886719 82.988281 153.484375 78.003906 154.273438 C 73.011719 155.0625 69.367188 167.605469 79.820312 175.296875 C 90.238281 182.988281 77.738281 188.203125 73.707031 180.992188 C 69.707031 173.769531 58.71875 155.222656 53.011719 151.648438 C 47.339844 148.105469 43.339844 150.070312 44.671875 157.417969 C 46.003906 164.746094 69.8125 182.484375 67.5 186.292969 C 65.171875 190.15625 57.011719 181.8125 57.011719 181.8125 C 57.011719 181.8125 31.5 158.933594 25.921875 164.90625 C 20.375 170.859375 30.164062 175.851562 44.054688 184.136719 C 58.003906 192.4375 59.09375 194.644531 57.121094 197.792969 C 55.125 200.9375 24.375 175.390625 21.492188 186.238281 C 18.613281 197.023438 52.886719 200.148438 50.773438 207.636719 C 48.640625 215.105469 26.613281 193.515625 22.132812 201.910156 C 17.601562 210.335938 53.207031 220.234375 53.492188 220.308594 C 64.960938 223.253906 94.164062 229.472656 104.375 214.742188 Z M 151.648438 214.742188 C 144.320312 204.136719 144.820312 196.179688 154.902344 186.292969 C 164.960938 176.394531 170.828125 161.886719 170.828125 161.886719 C 170.828125 161.886719 173.011719 153.484375 178.027344 154.273438 C 182.988281 155.0625 186.632812 167.605469 176.214844 175.296875 C 165.761719 182.988281 178.292969 188.203125 182.292969 180.992188 C 186.316406 173.769531 197.300781 155.222656 202.988281 151.648438 C 208.660156 148.105469 212.691406 150.070312 211.328125 157.417969 C 209.996094 164.746094 186.207031 182.484375 188.535156 186.292969 C 190.828125 190.15625 198.988281 181.8125 198.988281 181.8125 C 198.988281 181.8125 224.535156 158.933594 230.078125 164.90625 C 235.625 170.859375 225.867188 175.851562 211.945312 184.136719 C 197.996094 192.4375 196.929688 194.644531 198.878906 197.792969 C 200.875 200.9375 231.625 175.390625 234.507812 186.238281 C 237.386719 197.023438 203.148438 200.148438 205.246094 207.636719 C 207.382812 215.105469 229.386719 193.515625 233.886719 201.910156 C 238.398438 210.335938 202.828125 220.234375 202.527344 220.308594 C 191.039062 223.253906 161.835938 229.472656 151.648438 214.742188 Z M 151.648438 214.742188 "/>
</g>
</svg>
